<svg id="Layer_1" data-name="Layer 1" xmlns="http://www.w3.org/2000/svg" xmlns:xlink="http://www.w3.org/1999/xlink" viewBox="0 0 120 120"><defs><style>.cls-1{fill:none;}.cls-2{clip-path:url(#clip-path);}.cls-3{fill:url(#linear-gradient);}.cls-4{clip-path:url(#clip-path-2);}.cls-5{fill:url(#linear-gradient-2);}</style><clipPath id="clip-path"><path class="cls-1" d="M77.42,111.81a3.17,3.17,0,0,0-1.51-1.67l4-15.27a2.84,2.84,0,0,0,1-.2L87.56,103a3.19,3.19,0,0,0-.77,2.06,3.13,3.13,0,0,0,.76,2,11.6,11.6,0,0,1-9.33,4.74l-.8,0m-11.73-6.39V98.24A3.2,3.2,0,0,0,68,95.7l9.35-2.16a3,3,0,0,0,1,1l-4,15.28a3.24,3.24,0,0,0-2,.79c-3.89-1.64-6.59-4.37-6.66-5.15M82.16,93.64A2.88,2.88,0,0,0,82.69,92a2.78,2.78,0,0,0-.06-.58l8.65-6.64a3.42,3.42,0,0,0,1.11.81l-2.51,16.29a3.22,3.22,0,0,0-1,.19Zm9.32,8.59L94,85.89a3.49,3.49,0,0,0,2.63-1.34l6.68,4.27a3.12,3.12,0,0,0,1.89,3.85c-1,3.33-3.56,6.16-7.5,8.44a30.43,30.43,0,0,1-5,2.25,3.16,3.16,0,0,0-1.22-1.13m5.84-19.17a3.73,3.73,0,0,0,.07-.68,3.52,3.52,0,0,0-.22-1.17l6.07-4a3.19,3.19,0,0,0,2.53,1.25,3.15,3.15,0,0,0,1.76-.53,8.13,8.13,0,0,1,.93,3,12.1,12.1,0,0,1-.81,5.85,3.11,3.11,0,0,0-1.29-.28,3.2,3.2,0,0,0-2.23.91Zm-31.63,9V73.8l.19-.06L77.8,89.85A2.93,2.93,0,0,0,76.86,92l-9,2.09a3.2,3.2,0,0,0-2.12-2m1.54-19.29a2.89,2.89,0,0,0,.33-.45L90.39,82a2.87,2.87,0,0,0,0,.41,3.54,3.54,0,0,0,.14.93l-8.63,6.63a2.89,2.89,0,0,0-2.08-.87,3.88,3.88,0,0,0-.48,0Zm1.15-1.88,9.34-.75a3.05,3.05,0,0,0,3,2.41,3.1,3.1,0,0,0,1.51-.41L90,80Zm15,.08a3,3,0,0,0,.39-1.47,3.12,3.12,0,0,0-.29-1.29L97.63,57.82a3.21,3.21,0,0,0,2.33,1h.11l4.08,13.72a3.19,3.19,0,0,0-1.58,2.75,2.71,2.71,0,0,0,0,.4l-6.33,4.14a3.46,3.46,0,0,0-4.47-.3ZM65.69,67.67V49.36l.23-.07L78.5,67.44a3.1,3.1,0,0,0-.67,1.1l-10.14.81a3.2,3.2,0,0,0-2-1.68m1.57-19.32a3.18,3.18,0,0,0,.27-.37L96.8,55.26c0,.13,0,.25,0,.38a3,3,0,0,0,.1.73L82.4,67a3.09,3.09,0,0,0-1.7-.51,2.88,2.88,0,0,0-.78.11ZM68,46.42s0-.08,0-.12a3.29,3.29,0,0,0-.08-.71l10.39-5.85a2.87,2.87,0,0,0,1.85.7A2.83,2.83,0,0,0,81.65,40L96.83,53.58Zm33.62,11.94a3.18,3.18,0,0,0-.3-5.6l3.83-17.22a3.21,3.21,0,0,0,1.16-.3c5.57,5.73,6.43,13.62,6.07,19.56-.44,7.26-2.94,14.2-5.18,17.65a3.16,3.16,0,0,0-1.44-.35h0ZM82.76,38.81a2.8,2.8,0,0,0,0-2.42l8.11-8a4,4,0,0,0,2.29.73l.26,0,5.12,23.63-.12.07ZM95,28.69a4,4,0,0,0,1.2-1l5.62,3.84a3.42,3.42,0,0,0-.11.79,3.19,3.19,0,0,0,1.82,2.87L100,51.41ZM65.69,43.23V24.92a2.6,2.6,0,0,0,.55-.21L77.66,36.24a2.85,2.85,0,0,0-.34,1.33,3,3,0,0,0,.12.8L67.17,44.15a3.13,3.13,0,0,0-1.48-.92m1.79-19.59a3.5,3.5,0,0,0,.29-.54l21.46,2.36a4,4,0,0,0,.56,1.77l-8.08,7.92a2.79,2.79,0,0,0-2.91-.08Zm9.88-6.05,11.52,6.18L68,21.47a3.61,3.61,0,0,0-.15-.65l5-3a3.15,3.15,0,0,0,4.49-.23M90.68,13.4C101.1,17,103.25,25,103.61,29.46a3.38,3.38,0,0,0-1,.67L97,26.27a4,4,0,0,0-6.83-3.66L78.11,16.13c0-.13,0-.26,0-.4l6.72-1.94a3.18,3.18,0,0,0,5.81-.39m-25,5.4V7.68A15.72,15.72,0,0,1,77.61,6.1a18.16,18.16,0,0,1,7.72,4.06,3.1,3.1,0,0,0-.83,2l-6.65,1.91a3.17,3.17,0,0,0-6,1.37,3.14,3.14,0,0,0,.17,1l-5.07,3a3.12,3.12,0,0,0-1.23-.66M64.36,6.45,64,6.71V18.8a3.17,3.17,0,0,0,0,6.12V43.23a3.18,3.18,0,0,0,0,6.13V67.67a3.18,3.18,0,0,0,0,6.13V92.11a3.18,3.18,0,0,0,0,6.13v7.18c0,1.75,3.34,4.81,7.45,6.63a3.11,3.11,0,0,0-.15.92,3.2,3.2,0,0,0,6.34.58l.62,0A13.35,13.35,0,0,0,89,108.07a3,3,0,0,0,1,.18,3.2,3.2,0,0,0,3.2-3.2h0a31.37,31.37,0,0,0,5.33-2.4c4.44-2.55,7.31-5.9,8.44-9.8A3.19,3.19,0,0,0,109,87.93a13.26,13.26,0,0,0,1.17-7.21,9,9,0,0,0-1.48-4.16A3.12,3.12,0,0,0,109,75.3a3.24,3.24,0,0,0-.47-1.66c2.61-3.85,5.18-11.28,5.63-18.74.38-6.28-.55-14.65-6.5-20.81a3.18,3.18,0,0,0-2.29-4.89c-.43-5-2.9-13.84-14.54-17.59a3.19,3.19,0,0,0-3.11-2.5,3.1,3.1,0,0,0-.81.11A19.82,19.82,0,0,0,78,4.41a18.84,18.84,0,0,0-4.59-.58,16.91,16.91,0,0,0-9.08,2.62"/></clipPath><linearGradient id="linear-gradient" x1="-374.36" y1="459.69" x2="-373.78" y2="459.69" gradientTransform="matrix(0, -214.79, -214.79, 0, 98825.07, -80286.21)" gradientUnits="userSpaceOnUse"><stop offset="0" stop-color="#2e3192"/><stop offset="0.99" stop-color="#ef4136"/><stop offset="1" stop-color="#ef4136"/></linearGradient><clipPath id="clip-path-2"><path class="cls-1" d="M32.45,107.09a3.13,3.13,0,0,0,0-4.1l6.67-8.32a2.84,2.84,0,0,0,1,.2l4,15.27a3.17,3.17,0,0,0-1.51,1.67l-.81,0a11.59,11.59,0,0,1-9.32-4.74m13.24,2.69-4-15.28a3,3,0,0,0,1-1L52,95.7a3.2,3.2,0,0,0,2.28,2.54v7.18c-.07.78-2.77,3.51-6.66,5.15a3.24,3.24,0,0,0-2-.79m-15.57-7.92L27.61,85.57a3.42,3.42,0,0,0,1.11-.81l8.65,6.64a2.78,2.78,0,0,0-.06.58,2.88,2.88,0,0,0,.53,1.66l-6.74,8.41a3.22,3.22,0,0,0-1-.19m-7.81-.75c-3.94-2.28-6.45-5.11-7.5-8.44a3.12,3.12,0,0,0,1.89-3.85l6.68-4.27A3.49,3.49,0,0,0,26,85.89l2.51,16.34a3.16,3.16,0,0,0-1.22,1.13,30.43,30.43,0,0,1-5-2.25M16.76,77.24l6.07,4a3.52,3.52,0,0,0-.22,1.17,3.73,3.73,0,0,0,.07.68l-6.81,4.35a3.2,3.2,0,0,0-2.23-.91,3.11,3.11,0,0,0-1.29.28,12.1,12.1,0,0,1-.81-5.85,8.13,8.13,0,0,1,.93-3,3.15,3.15,0,0,0,1.76.53,3.19,3.19,0,0,0,2.53-1.25M43.14,92a2.93,2.93,0,0,0-.94-2.12L54.12,73.74l.19.06V92.11a3.2,3.2,0,0,0-2.12,2ZM29.52,83.31a3.54,3.54,0,0,0,.14-.93,2.87,2.87,0,0,0-.05-.41l22.83-9.6a3.72,3.72,0,0,0,.33.45L40.71,89.11a3.89,3.89,0,0,0-.49,0,2.88,2.88,0,0,0-2.07.87ZM42.28,70.19l9.34.75L30,80l7.8-7.85a3.1,3.1,0,0,0,1.51.41,3.05,3.05,0,0,0,3-2.41M22.36,57.82,36.54,68.26a3.12,3.12,0,0,0-.29,1.29A3,3,0,0,0,36.64,71l-8.45,8.52a3.5,3.5,0,0,0-2.05-.68,3.55,3.55,0,0,0-2.43,1L17.39,75.7c0-.13,0-.27,0-.4a3.19,3.19,0,0,0-1.58-2.75l4.08-13.72H20a3.17,3.17,0,0,0,2.32-1M42.17,68.54a3.1,3.1,0,0,0-.67-1.1L54.08,49.29l.23.07V67.67a3.2,3.2,0,0,0-2,1.68Zm-19-12.17a3.56,3.56,0,0,0,.09-.73c0-.13,0-.25,0-.38L52.47,48c.08.13.18.25.27.37L40.08,66.61a2.88,2.88,0,0,0-.78-.11,3.09,3.09,0,0,0-1.7.51ZM41.67,39.74l10.39,5.85a3.29,3.29,0,0,0-.08.71s0,.08,0,.12L23.17,53.58,38.35,40a2.79,2.79,0,0,0,3.32-.28M7.61,54.8c-.36-5.94.51-13.83,6.07-19.56a3.15,3.15,0,0,0,1.16.3l3.83,17.22a3.18,3.18,0,0,0-.3,5.6L14.28,72.1h0a3.16,3.16,0,0,0-1.44.35C10.55,69,8.05,62.06,7.61,54.8M29.1,28.43l8.11,8a2.8,2.8,0,0,0,0,2.42l-15.69,14-.12-.07,5.12-23.63.26,0a4,4,0,0,0,2.29-.73m-12.66,6.8a3.19,3.19,0,0,0,1.82-2.87,3,3,0,0,0-.12-.79l5.63-3.84a4,4,0,0,0,1.2,1L20.05,51.41Zm26.12,3.14a3,3,0,0,0,.12-.8,2.85,2.85,0,0,0-.34-1.33L53.76,24.71a2.6,2.6,0,0,0,.55.21V43.23a3.13,3.13,0,0,0-1.48.92ZM30.21,27.23a4,4,0,0,0,.56-1.77L52.23,23.1a3.5,3.5,0,0,0,.29.54L41.2,35.07a2.79,2.79,0,0,0-2.91.08Zm12.43-9.64a3.15,3.15,0,0,0,4.49.23l5,3a3.61,3.61,0,0,0-.15.65l-20.9,2.3ZM16.39,29.46C16.75,25,18.9,17,29.32,13.4a3.18,3.18,0,0,0,5.81.39l6.72,1.94c0,.14,0,.27,0,.4L29.83,22.61A4,4,0,0,0,23,26.27l-5.65,3.86a3.38,3.38,0,0,0-1-.67M35.5,12.2a3.1,3.1,0,0,0-.83-2A18.16,18.16,0,0,1,42.39,6.1,15.72,15.72,0,0,1,54.31,7.68V18.8a3.12,3.12,0,0,0-1.23.66l-5.07-3a3.14,3.14,0,0,0,.17-1,3.17,3.17,0,0,0-6-1.37ZM42,4.41a19.82,19.82,0,0,0-8.85,4.81,3,3,0,0,0-.8-.11,3.19,3.19,0,0,0-3.12,2.5C17.56,15.36,15.09,24.24,14.66,29.2a3.18,3.18,0,0,0-2.29,4.89C6.42,40.25,5.49,48.62,5.87,54.9c.45,7.46,3,14.89,5.63,18.74A3.24,3.24,0,0,0,11,75.3a3.3,3.3,0,0,0,.26,1.26,9,9,0,0,0-1.48,4.16A13.26,13.26,0,0,0,11,87.93,3.19,3.19,0,0,0,13,92.84c1.13,3.9,4,7.25,8.44,9.8a31.37,31.37,0,0,0,5.33,2.4h0a3.2,3.2,0,0,0,3.2,3.2,3,3,0,0,0,1-.18,13.35,13.35,0,0,0,10.79,5.5l.62,0a3.2,3.2,0,0,0,6.34-.58,3.11,3.11,0,0,0-.15-.92c4.11-1.82,7.45-4.88,7.45-6.63V98.24a3.18,3.18,0,0,0,0-6.13V73.8a3.18,3.18,0,0,0,0-6.13V49.36a3.18,3.18,0,0,0,0-6.13V24.92a3.17,3.17,0,0,0,0-6.12V6.71l-.41-.26a16.91,16.91,0,0,0-9.08-2.62A18.84,18.84,0,0,0,42,4.41"/></clipPath><linearGradient id="linear-gradient-2" x1="-373.03" y1="459.39" x2="-372.45" y2="459.39" gradientTransform="translate(80388.23 65244.25) rotate(90) scale(174.92)" xlink:href="#linear-gradient"/></defs><title>alejandra-icon</title><g class="cls-2"><rect class="cls-3" x="61.62" y="3.83" width="52.89" height="112.33"/></g><g class="cls-4"><rect class="cls-5" x="5.49" y="3.83" width="52.89" height="112.33"/></g></svg>