<?xml version="1.0" encoding="utf-8"?>
<!-- Generator: Adobe Illustrator 23.1.1, SVG Export Plug-In . SVG Version: 6.00 Build 0)  -->
<svg version="1.1" id="Layer_1" xmlns="http://www.w3.org/2000/svg" xmlns:xlink="http://www.w3.org/1999/xlink" x="0px" y="0px"
	 viewBox="0 0 440 120" style="enable-background:new 0 0 440 120;" xml:space="preserve">
<style type="text/css">
	.st0{enable-background:new    ;}
	.st1{fill:#2E3192;}
	.st2{clip-path:url(#SVGID_2_);}
	.st3{fill:url(#SVGID_3_);}
	.st4{clip-path:url(#SVGID_5_);}
	.st5{fill:url(#SVGID_6_);}
</style>
<title>alejandra-logo</title>
<g class="st0">
	<path class="st1" d="M148.3,28.6h5.6l13.3,30.5h-7.6l-2.6-6.5H145l-2.5,6.5h-7.4L148.3,28.6z M150.8,37.5l-3.7,9.5h7.5L150.8,37.5z
		"/>
	<path class="st1" d="M169.4,26.5h6.5v32.6h-6.5V26.5z"/>
	<path class="st1" d="M200.4,55.5c-1,1.3-2.3,2.3-3.9,3.1c-1.6,0.7-3.2,1.1-4.9,1.1c-1.6,0-3.1-0.3-4.5-0.8s-2.7-1.3-3.7-2.2
		c-1-1-1.9-2.1-2.5-3.5c-0.6-1.4-0.9-2.9-0.9-4.5c0-1.7,0.3-3.2,0.9-4.5c0.6-1.4,1.4-2.5,2.5-3.5c1-1,2.3-1.7,3.7-2.2
		s2.9-0.8,4.5-0.8c1.5,0,2.9,0.3,4.1,0.8c1.2,0.5,2.3,1.3,3.1,2.2c0.8,1,1.5,2.1,2,3.5c0.5,1.4,0.7,2.9,0.7,4.5v2h-15
		c0.3,1.2,0.8,2.2,1.7,3c0.9,0.7,1.9,1.1,3.2,1.1c1.1,0,2-0.2,2.7-0.7c0.7-0.5,1.4-1.1,1.9-1.8L200.4,55.5z M194.9,46.3
		c0-1.1-0.3-2-1.1-2.8c-0.7-0.8-1.7-1.2-2.9-1.2c-0.7,0-1.4,0.1-1.9,0.3c-0.5,0.2-1,0.5-1.4,0.9c-0.4,0.4-0.7,0.8-0.9,1.3
		c-0.2,0.5-0.3,1-0.4,1.5H194.9z"/>
	<path class="st1" d="M211.9,60.7c0,1.4-0.1,2.6-0.4,3.6s-0.7,2-1.3,2.8c-0.6,0.8-1.4,1.4-2.4,1.8c-1,0.4-2.2,0.6-3.7,0.6
		c-0.5,0-1,0-1.5-0.1s-1-0.1-1.5-0.3l0.3-5.7c0.5,0.3,1.1,0.4,1.7,0.4c0.5,0,1-0.1,1.3-0.4c0.3-0.3,0.5-0.6,0.7-1.1
		c0.1-0.4,0.2-0.9,0.3-1.4c0-0.5,0-0.9,0-1.3V38.2h6.5V60.7z M204.9,31.6c0-1,0.4-1.9,1.1-2.7c0.7-0.7,1.6-1.1,2.7-1.1
		c1,0,1.9,0.4,2.7,1.1c0.7,0.7,1.1,1.6,1.1,2.7s-0.4,1.9-1.1,2.7c-0.7,0.7-1.6,1.1-2.7,1.1c-1,0-1.9-0.4-2.7-1.1
		C205.2,33.5,204.9,32.6,204.9,31.6z"/>
	<path class="st1" d="M229.7,56.5L229.7,56.5c-0.8,1.1-1.8,1.9-3,2.4c-1.2,0.5-2.5,0.7-3.8,0.7c-1,0-1.9-0.1-2.8-0.4
		c-0.9-0.3-1.7-0.7-2.4-1.2s-1.2-1.2-1.6-2c-0.4-0.8-0.6-1.7-0.6-2.8c0-1.2,0.2-2.2,0.7-3.1c0.4-0.8,1-1.5,1.8-2.1
		c0.8-0.5,1.6-1,2.6-1.3c1-0.3,2-0.5,3-0.7c1-0.1,2.1-0.2,3.1-0.3c1,0,2,0,2.9,0c0-1.1-0.4-2.1-1.2-2.7c-0.8-0.7-1.8-1-2.9-1
		c-1.1,0-2,0.2-2.9,0.7c-0.9,0.4-1.7,1.1-2.3,1.8l-3.4-3.5c1.2-1.1,2.6-2,4.2-2.5c1.6-0.6,3.3-0.8,5-0.8c1.9,0,3.5,0.2,4.7,0.7
		c1.2,0.5,2.2,1.2,2.9,2.1s1.2,2,1.5,3.4c0.3,1.3,0.4,2.9,0.4,4.6v10.7h-6V56.5z M228.1,49.9c-0.5,0-1.1,0-1.8,0.1
		c-0.7,0-1.4,0.2-2.1,0.4c-0.7,0.2-1.3,0.5-1.7,0.9c-0.5,0.4-0.7,1-0.7,1.7c0,0.8,0.3,1.4,1,1.7c0.7,0.4,1.4,0.6,2.1,0.6
		c0.6,0,1.2-0.1,1.8-0.3c0.6-0.2,1.1-0.4,1.6-0.7c0.5-0.3,0.8-0.7,1.1-1.2c0.3-0.5,0.4-1.1,0.4-1.7v-1.4H228.1z"/>
	<path class="st1" d="M239.7,38.2h6.2V41h0.1c0.2-0.4,0.5-0.8,0.9-1.2c0.4-0.4,0.8-0.8,1.3-1.1c0.5-0.3,1.1-0.6,1.8-0.8
		c0.7-0.2,1.4-0.3,2.2-0.3c1.6,0,3,0.3,4,0.8c1,0.5,1.8,1.2,2.3,2.1c0.6,0.9,0.9,1.9,1.1,3.1c0.2,1.2,0.3,2.5,0.3,3.9v11.6h-6.5
		V48.8c0-0.6,0-1.2-0.1-1.9c0-0.6-0.2-1.2-0.4-1.8c-0.2-0.5-0.5-1-1-1.3c-0.4-0.3-1.1-0.5-1.9-0.5s-1.5,0.2-2,0.5s-0.9,0.7-1.2,1.2
		c-0.3,0.5-0.5,1.1-0.5,1.7c-0.1,0.6-0.1,1.3-0.1,2v10.4h-6.5V38.2z"/>
	<path class="st1" d="M286.4,59.1h-6v-2.8h-0.1c-0.3,0.4-0.6,0.8-1,1.1c-0.4,0.4-0.9,0.7-1.5,1.1s-1.2,0.6-1.9,0.8
		c-0.7,0.2-1.4,0.3-2.1,0.3c-1.6,0-3-0.3-4.2-0.8c-1.3-0.5-2.4-1.3-3.3-2.2c-0.9-1-1.6-2.1-2.1-3.4c-0.5-1.3-0.7-2.8-0.7-4.4
		c0-1.5,0.2-2.9,0.7-4.2c0.4-1.3,1.1-2.5,1.9-3.6s1.8-1.9,3-2.5c1.2-0.6,2.5-0.9,4-0.9c1.4,0,2.6,0.2,3.8,0.6
		c1.2,0.4,2.1,1.1,2.9,2.1h0.1V26.5h6.5V59.1z M280.5,48.6c0-1.6-0.5-2.9-1.4-3.8s-2.2-1.5-3.8-1.5c-1.6,0-2.9,0.5-3.8,1.5
		s-1.4,2.3-1.4,3.8c0,1.6,0.5,2.9,1.4,3.8c0.9,1,2.2,1.5,3.8,1.5c1.6,0,2.9-0.5,3.8-1.5C280,51.5,280.5,50.2,280.5,48.6z"/>
	<path class="st1" d="M291.6,38.2h6.5v3.4h0.1c0.7-1.3,1.5-2.3,2.5-2.9c0.9-0.6,2.1-1,3.6-1c0.4,0,0.7,0,1.1,0c0.4,0,0.7,0.1,1,0.2
		v5.9c-0.5-0.1-0.9-0.3-1.4-0.3c-0.4-0.1-0.9-0.1-1.4-0.1c-1.2,0-2.2,0.2-2.9,0.5c-0.7,0.3-1.3,0.8-1.7,1.4
		c-0.4,0.6-0.6,1.4-0.8,2.2s-0.2,1.8-0.2,2.8v8.8h-6.5V38.2z"/>
	<path class="st1" d="M322.3,56.5L322.3,56.5c-0.8,1.1-1.8,1.9-3,2.4c-1.2,0.5-2.5,0.7-3.8,0.7c-1,0-1.9-0.1-2.8-0.4
		c-0.9-0.3-1.7-0.7-2.4-1.2c-0.7-0.5-1.2-1.2-1.6-2c-0.4-0.8-0.6-1.7-0.6-2.8c0-1.2,0.2-2.2,0.7-3.1c0.4-0.8,1-1.5,1.8-2.1
		c0.8-0.5,1.6-1,2.6-1.3c1-0.3,2-0.5,3-0.7c1-0.1,2.1-0.2,3.1-0.3c1,0,2,0,2.9,0c0-1.1-0.4-2.1-1.2-2.7c-0.8-0.7-1.8-1-2.9-1
		c-1.1,0-2,0.2-2.9,0.7c-0.9,0.4-1.7,1.1-2.3,1.8l-3.4-3.5c1.2-1.1,2.6-2,4.2-2.5c1.6-0.6,3.3-0.8,5-0.8c1.9,0,3.5,0.2,4.7,0.7
		c1.2,0.5,2.2,1.2,2.9,2.1s1.2,2,1.5,3.4c0.3,1.3,0.4,2.9,0.4,4.6v10.7h-6V56.5z M320.7,49.9c-0.5,0-1.1,0-1.8,0.1
		c-0.7,0-1.4,0.2-2.1,0.4c-0.7,0.2-1.3,0.5-1.7,0.9c-0.5,0.4-0.7,1-0.7,1.7c0,0.8,0.3,1.4,1,1.7c0.7,0.4,1.4,0.6,2.1,0.6
		c0.6,0,1.2-0.1,1.8-0.3c0.6-0.2,1.1-0.4,1.6-0.7c0.5-0.3,0.8-0.7,1.1-1.2c0.3-0.5,0.4-1.1,0.4-1.7v-1.4H320.7z"/>
</g>
<g class="st0">
	<path class="st1" d="M350.2,34.5h-8.7v-6h24.1v6h-8.7v24.6h-6.7V34.5z"/>
</g>
<g class="st0">
	<path class="st1" d="M362.7,48.6c0-1.7,0.3-3.2,0.9-4.5c0.6-1.4,1.4-2.5,2.5-3.5s2.3-1.7,3.7-2.2s2.9-0.8,4.5-0.8
		c1.6,0,3.1,0.3,4.5,0.8s2.7,1.3,3.7,2.2c1,1,1.9,2.1,2.5,3.5c0.6,1.4,0.9,2.9,0.9,4.5c0,1.7-0.3,3.2-0.9,4.5
		c-0.6,1.4-1.4,2.5-2.5,3.5c-1,1-2.3,1.7-3.7,2.2s-2.9,0.8-4.5,0.8c-1.6,0-3.1-0.3-4.5-0.8s-2.7-1.3-3.7-2.2c-1-1-1.9-2.1-2.5-3.5
		C363,51.8,362.7,50.3,362.7,48.6z M369.2,48.6c0,1.6,0.5,2.9,1.4,3.8c0.9,1,2.2,1.5,3.8,1.5s2.9-0.5,3.8-1.5c0.9-1,1.4-2.3,1.4-3.8
		c0-1.6-0.5-2.9-1.4-3.8c-0.9-1-2.2-1.5-3.8-1.5s-2.9,0.5-3.8,1.5C369.6,45.8,369.2,47.1,369.2,48.6z"/>
	<path class="st1" d="M390.6,28.6h11.3c1.6,0,3.1,0.1,4.5,0.4c1.4,0.3,2.6,0.8,3.7,1.5c1,0.7,1.9,1.7,2.5,2.8
		c0.6,1.2,0.9,2.7,0.9,4.5c0,1.8-0.3,3.3-0.9,4.5c-0.6,1.2-1.4,2.2-2.4,2.9c-1,0.7-2.2,1.2-3.6,1.5s-2.9,0.5-4.5,0.5h-4.9v11.9h-6.7
		V28.6z M397.3,41.5h4.5c0.6,0,1.2-0.1,1.7-0.2c0.6-0.1,1.1-0.3,1.5-0.6c0.4-0.3,0.8-0.6,1.1-1.1c0.3-0.5,0.4-1.1,0.4-1.8
		c0-0.8-0.2-1.4-0.5-1.9s-0.8-0.8-1.4-1.1s-1.2-0.4-1.9-0.5c-0.7-0.1-1.4-0.1-2-0.1h-3.4V41.5z"/>
	<path class="st1" d="M430.1,56.5L430.1,56.5c-0.8,1.1-1.8,1.9-3,2.4c-1.2,0.5-2.5,0.7-3.8,0.7c-1,0-1.9-0.1-2.8-0.4
		c-0.9-0.3-1.7-0.7-2.4-1.2c-0.7-0.5-1.2-1.2-1.6-2s-0.6-1.7-0.6-2.8c0-1.2,0.2-2.2,0.7-3.1c0.4-0.8,1-1.5,1.8-2.1
		c0.8-0.5,1.6-1,2.6-1.3c1-0.3,2-0.5,3-0.7c1-0.1,2.1-0.2,3.1-0.3c1,0,2,0,2.9,0c0-1.1-0.4-2.1-1.2-2.7c-0.8-0.7-1.8-1-2.9-1
		c-1.1,0-2,0.2-2.9,0.7c-0.9,0.4-1.7,1.1-2.4,1.8l-3.4-3.5c1.2-1.1,2.6-2,4.2-2.5c1.6-0.6,3.3-0.8,5-0.8c1.9,0,3.5,0.2,4.7,0.7
		c1.2,0.5,2.2,1.2,2.9,2.1c0.7,0.9,1.2,2,1.5,3.4c0.3,1.3,0.4,2.9,0.4,4.6v10.7h-6V56.5z M428.5,49.9c-0.5,0-1.1,0-1.8,0.1
		s-1.4,0.2-2.1,0.4s-1.2,0.5-1.7,0.9s-0.7,1-0.7,1.7c0,0.8,0.3,1.4,1,1.7c0.7,0.4,1.4,0.6,2.1,0.6c0.6,0,1.2-0.1,1.8-0.3
		c0.6-0.2,1.1-0.4,1.6-0.7c0.5-0.3,0.8-0.7,1.1-1.2c0.3-0.5,0.4-1.1,0.4-1.7v-1.4H428.5z"/>
</g>
<g class="st0">
	<path class="st1" d="M136.5,74.4h5.3c0.7,0,1.4,0.1,2.1,0.2c0.7,0.1,1.2,0.4,1.7,0.7c0.5,0.3,0.9,0.8,1.2,1.3s0.4,1.3,0.4,2.1
		c0,0.8-0.1,1.5-0.4,2.1c-0.3,0.6-0.6,1-1.1,1.3c-0.5,0.3-1,0.6-1.7,0.7c-0.6,0.1-1.3,0.2-2.1,0.2h-2.3v5.6h-3.1V74.4z M139.7,80.4
		h2.1c0.3,0,0.6,0,0.8-0.1s0.5-0.1,0.7-0.3c0.2-0.1,0.4-0.3,0.5-0.5c0.1-0.2,0.2-0.5,0.2-0.8c0-0.4-0.1-0.7-0.3-0.9
		c-0.2-0.2-0.4-0.4-0.6-0.5c-0.3-0.1-0.6-0.2-0.9-0.2c-0.3,0-0.6,0-0.9,0h-1.6V80.4z"/>
	<path class="st1" d="M154.4,81.7c-0.4-0.5-1-0.8-1.8-0.8c-0.3,0-0.5,0.1-0.7,0.2s-0.4,0.3-0.4,0.6c0,0.2,0.1,0.4,0.4,0.5
		c0.2,0.1,0.6,0.2,0.9,0.3c0.4,0.1,0.8,0.2,1.2,0.3c0.4,0.1,0.8,0.3,1.2,0.5c0.4,0.2,0.7,0.5,0.9,0.9c0.2,0.4,0.4,0.9,0.4,1.5
		c0,0.6-0.1,1.2-0.4,1.6c-0.3,0.4-0.6,0.7-1.1,1s-0.9,0.4-1.4,0.5s-1.1,0.2-1.6,0.2c-0.7,0-1.4-0.1-2.1-0.3c-0.7-0.2-1.3-0.5-1.8-1
		l1.8-2c0.3,0.3,0.6,0.6,0.9,0.8c0.3,0.2,0.7,0.3,1.2,0.3c0.3,0,0.7-0.1,0.9-0.2s0.4-0.3,0.4-0.6c0-0.3-0.1-0.4-0.4-0.6
		c-0.2-0.1-0.6-0.2-0.9-0.3c-0.4-0.1-0.8-0.2-1.2-0.3c-0.4-0.1-0.8-0.3-1.2-0.5s-0.7-0.5-0.9-0.9c-0.2-0.4-0.4-0.9-0.4-1.5
		c0-0.6,0.1-1.1,0.4-1.5c0.2-0.4,0.5-0.8,0.9-1c0.4-0.3,0.8-0.5,1.3-0.6c0.5-0.1,1-0.2,1.5-0.2c0.6,0,1.3,0.1,2,0.3
		c0.7,0.2,1.2,0.5,1.7,1L154.4,81.7z"/>
	<path class="st1" d="M158,75.8c0-0.5,0.2-0.9,0.5-1.2c0.3-0.3,0.8-0.5,1.2-0.5s0.9,0.2,1.2,0.5c0.3,0.3,0.5,0.8,0.5,1.2
		c0,0.5-0.2,0.9-0.5,1.2c-0.3,0.3-0.8,0.5-1.2,0.5s-0.9-0.2-1.2-0.5C158.1,76.7,158,76.3,158,75.8z M158.2,78.9h3v9.8h-3V78.9z"/>
	<path class="st1" d="M170,82c-0.1-0.2-0.4-0.4-0.6-0.5c-0.3-0.1-0.6-0.2-0.9-0.2c-0.8,0-1.4,0.2-1.8,0.7c-0.4,0.5-0.6,1.1-0.6,1.8
		c0,0.7,0.2,1.3,0.6,1.8c0.4,0.5,1,0.7,1.8,0.7c0.3,0,0.6-0.1,0.9-0.2c0.2-0.1,0.4-0.3,0.6-0.5l2,2.1c-0.5,0.5-1,0.8-1.7,1
		c-0.6,0.2-1.2,0.3-1.8,0.3c-0.8,0-1.5-0.1-2.1-0.4c-0.7-0.2-1.2-0.6-1.7-1c-0.5-0.4-0.9-1-1.2-1.6s-0.4-1.3-0.4-2.1
		c0-0.8,0.1-1.5,0.4-2.1c0.3-0.6,0.7-1.2,1.2-1.6s1.1-0.8,1.7-1c0.7-0.2,1.4-0.4,2.1-0.4c0.6,0,1.2,0.1,1.8,0.3s1.2,0.5,1.7,1
		L170,82z"/>
	<path class="st1" d="M172.7,83.8c0-0.8,0.1-1.5,0.4-2.1c0.3-0.6,0.7-1.2,1.2-1.6c0.5-0.4,1.1-0.8,1.7-1c0.7-0.2,1.4-0.4,2.1-0.4
		c0.8,0,1.5,0.1,2.1,0.4c0.7,0.2,1.2,0.6,1.7,1c0.5,0.4,0.9,1,1.2,1.6c0.3,0.6,0.4,1.3,0.4,2.1c0,0.8-0.1,1.5-0.4,2.1
		s-0.7,1.2-1.2,1.6c-0.5,0.5-1.1,0.8-1.7,1c-0.7,0.2-1.4,0.4-2.1,0.4c-0.8,0-1.5-0.1-2.1-0.4c-0.7-0.2-1.2-0.6-1.7-1
		c-0.5-0.4-0.9-1-1.2-1.6C172.9,85.2,172.7,84.5,172.7,83.8z M175.7,83.8c0,0.7,0.2,1.3,0.6,1.8s1,0.7,1.8,0.7s1.4-0.2,1.8-0.7
		c0.4-0.5,0.6-1.1,0.6-1.8c0-0.7-0.2-1.3-0.6-1.8c-0.4-0.5-1-0.7-1.8-0.7s-1.4,0.2-1.8,0.7S175.7,83,175.7,83.8z M178.2,74.4h4.1
		l-3.5,2.9h-2.7L178.2,74.4z"/>
	<path class="st1" d="M185.4,73.4h3v15.2h-3V73.4z"/>
	<path class="st1" d="M190.2,83.8c0-0.8,0.1-1.5,0.4-2.1c0.3-0.6,0.7-1.2,1.2-1.6c0.5-0.4,1.1-0.8,1.7-1c0.7-0.2,1.4-0.4,2.1-0.4
		c0.8,0,1.5,0.1,2.1,0.4c0.7,0.2,1.2,0.6,1.7,1c0.5,0.4,0.9,1,1.2,1.6c0.3,0.6,0.4,1.3,0.4,2.1c0,0.8-0.1,1.5-0.4,2.1
		s-0.7,1.2-1.2,1.6c-0.5,0.5-1.1,0.8-1.7,1c-0.7,0.2-1.4,0.4-2.1,0.4c-0.8,0-1.5-0.1-2.1-0.4c-0.7-0.2-1.2-0.6-1.7-1
		c-0.5-0.4-0.9-1-1.2-1.6C190.4,85.2,190.2,84.5,190.2,83.8z M193.2,83.8c0,0.7,0.2,1.3,0.6,1.8s1,0.7,1.8,0.7s1.4-0.2,1.8-0.7
		c0.4-0.5,0.6-1.1,0.6-1.8c0-0.7-0.2-1.3-0.6-1.8c-0.4-0.5-1-0.7-1.8-0.7s-1.4,0.2-1.8,0.7S193.2,83,193.2,83.8z"/>
	<path class="st1" d="M213.1,87.8c0,1.9-0.5,3.3-1.4,4.2c-0.9,1-2.4,1.4-4.3,1.4c-0.9,0-1.7-0.1-2.6-0.3c-0.8-0.2-1.6-0.6-2.3-1.1
		l1.7-2.5c0.5,0.4,1,0.7,1.5,0.9c0.5,0.2,1.1,0.3,1.7,0.3c0.9,0,1.6-0.2,2-0.7c0.4-0.4,0.7-1,0.7-1.7v-0.9h0c-0.3,0.5-0.8,0.8-1.3,1
		c-0.5,0.2-1,0.3-1.5,0.3c-0.7,0-1.4-0.1-2-0.4c-0.6-0.2-1.1-0.6-1.5-1s-0.7-1-1-1.6c-0.2-0.6-0.3-1.3-0.3-2c0-0.6,0.1-1.3,0.3-1.9
		c0.2-0.6,0.5-1.2,0.9-1.6s0.8-0.8,1.4-1.1c0.5-0.3,1.2-0.4,1.9-0.4c0.4,0,0.8,0,1.2,0.1s0.7,0.2,1,0.4s0.5,0.3,0.7,0.5
		c0.2,0.2,0.4,0.4,0.5,0.5h0v-1.3h2.8V87.8z M205.5,83.7c0,0.3,0.1,0.6,0.2,0.9c0.1,0.3,0.3,0.5,0.5,0.8c0.2,0.2,0.5,0.4,0.8,0.5
		s0.6,0.2,1,0.2c0.3,0,0.7-0.1,0.9-0.2s0.6-0.3,0.8-0.5s0.4-0.5,0.5-0.8c0.1-0.3,0.2-0.6,0.2-0.9c0-0.3-0.1-0.6-0.2-0.9
		c-0.1-0.3-0.3-0.5-0.5-0.8c-0.2-0.2-0.5-0.4-0.8-0.5c-0.3-0.1-0.6-0.2-0.9-0.2c-0.3,0-0.7,0.1-1,0.2c-0.3,0.1-0.5,0.3-0.8,0.5
		c-0.2,0.2-0.4,0.5-0.5,0.8C205.6,83.1,205.5,83.4,205.5,83.7z"/>
	<path class="st1" d="M221.7,87.4L221.7,87.4c-0.4,0.5-0.8,0.9-1.4,1.1s-1.1,0.3-1.8,0.3c-0.5,0-0.9-0.1-1.3-0.2
		c-0.4-0.1-0.8-0.3-1.1-0.6c-0.3-0.3-0.6-0.6-0.8-0.9c-0.2-0.4-0.3-0.8-0.3-1.3c0-0.6,0.1-1,0.3-1.4c0.2-0.4,0.5-0.7,0.8-1
		s0.8-0.5,1.2-0.6s0.9-0.2,1.4-0.3s1-0.1,1.5-0.1c0.5,0,0.9,0,1.4,0c0-0.5-0.2-1-0.6-1.3c-0.4-0.3-0.8-0.5-1.4-0.5
		c-0.5,0-0.9,0.1-1.4,0.3c-0.4,0.2-0.8,0.5-1.1,0.9l-1.6-1.6c0.6-0.5,1.2-0.9,2-1.2c0.8-0.3,1.5-0.4,2.3-0.4c0.9,0,1.6,0.1,2.2,0.3
		c0.6,0.2,1,0.5,1.4,1c0.3,0.4,0.6,1,0.7,1.6c0.1,0.6,0.2,1.3,0.2,2.2v5h-2.8V87.4z M220.9,84.4c-0.2,0-0.5,0-0.9,0
		c-0.3,0-0.7,0.1-1,0.2c-0.3,0.1-0.6,0.2-0.8,0.4c-0.2,0.2-0.3,0.5-0.3,0.8c0,0.4,0.2,0.6,0.5,0.8c0.3,0.2,0.6,0.3,1,0.3
		c0.3,0,0.6,0,0.9-0.1c0.3-0.1,0.5-0.2,0.7-0.3c0.2-0.1,0.4-0.3,0.5-0.6c0.1-0.2,0.2-0.5,0.2-0.8v-0.6H220.9z"/>
	<path class="st1" d="M242,78.1c-0.3-0.4-0.7-0.7-1.1-0.9s-1-0.3-1.6-0.3c-0.6,0-1.1,0.1-1.6,0.3c-0.5,0.2-0.9,0.5-1.3,1
		s-0.7,0.9-0.9,1.5s-0.3,1.2-0.3,1.8c0,0.7,0.1,1.3,0.3,1.8s0.5,1,0.9,1.4s0.8,0.7,1.3,1s1,0.3,1.6,0.3c0.6,0,1.2-0.1,1.7-0.4
		c0.5-0.3,0.9-0.6,1.2-1.1l2.6,2c-0.6,0.8-1.4,1.5-2.3,1.9s-1.9,0.6-2.9,0.6c-1.1,0-2.1-0.2-3.1-0.5c-0.9-0.3-1.8-0.8-2.4-1.5
		c-0.7-0.7-1.2-1.4-1.6-2.4c-0.4-0.9-0.6-2-0.6-3.1c0-1.1,0.2-2.2,0.6-3.1c0.4-0.9,0.9-1.7,1.6-2.4c0.7-0.7,1.5-1.2,2.4-1.5
		c0.9-0.3,2-0.5,3.1-0.5c0.4,0,0.8,0,1.3,0.1c0.4,0.1,0.9,0.2,1.3,0.4c0.4,0.2,0.8,0.4,1.2,0.6c0.4,0.3,0.7,0.6,1,1L242,78.1z"/>
	<path class="st1" d="M245.7,83.8c0-0.8,0.1-1.5,0.4-2.1c0.3-0.6,0.7-1.2,1.2-1.6s1.1-0.8,1.7-1c0.7-0.2,1.4-0.4,2.1-0.4
		c0.8,0,1.5,0.1,2.1,0.4c0.7,0.2,1.2,0.6,1.7,1s0.9,1,1.2,1.6c0.3,0.6,0.4,1.3,0.4,2.1c0,0.8-0.1,1.5-0.4,2.1
		c-0.3,0.6-0.7,1.2-1.2,1.6c-0.5,0.5-1.1,0.8-1.7,1c-0.7,0.2-1.4,0.4-2.1,0.4c-0.8,0-1.5-0.1-2.1-0.4c-0.7-0.2-1.2-0.6-1.7-1
		c-0.5-0.4-0.9-1-1.2-1.6C245.9,85.2,245.7,84.5,245.7,83.8z M248.7,83.8c0,0.7,0.2,1.3,0.6,1.8c0.4,0.5,1,0.7,1.8,0.7
		s1.4-0.2,1.8-0.7s0.6-1.1,0.6-1.8c0-0.7-0.2-1.3-0.6-1.8s-1-0.7-1.8-0.7s-1.4,0.2-1.8,0.7C248.9,82.4,248.7,83,248.7,83.8z"/>
	<path class="st1" d="M268.6,87.8c0,1.9-0.5,3.3-1.4,4.2c-0.9,1-2.4,1.4-4.3,1.4c-0.9,0-1.7-0.1-2.6-0.3s-1.6-0.6-2.3-1.1l1.7-2.5
		c0.5,0.4,1,0.7,1.5,0.9c0.5,0.2,1.1,0.3,1.7,0.3c0.9,0,1.6-0.2,2-0.7c0.4-0.4,0.7-1,0.7-1.7v-0.9h0c-0.3,0.5-0.8,0.8-1.3,1
		s-1,0.3-1.5,0.3c-0.7,0-1.4-0.1-2-0.4c-0.6-0.2-1.1-0.6-1.5-1c-0.4-0.4-0.7-1-1-1.6c-0.2-0.6-0.3-1.3-0.3-2c0-0.6,0.1-1.3,0.3-1.9
		c0.2-0.6,0.5-1.2,0.9-1.6c0.4-0.5,0.8-0.8,1.4-1.1s1.2-0.4,1.9-0.4c0.4,0,0.8,0,1.2,0.1s0.7,0.2,1,0.4c0.3,0.1,0.5,0.3,0.7,0.5
		c0.2,0.2,0.4,0.4,0.5,0.5h0v-1.3h2.8V87.8z M261,83.7c0,0.3,0.1,0.6,0.2,0.9c0.1,0.3,0.3,0.5,0.5,0.8c0.2,0.2,0.5,0.4,0.8,0.5
		c0.3,0.1,0.6,0.2,1,0.2c0.3,0,0.7-0.1,0.9-0.2s0.6-0.3,0.8-0.5c0.2-0.2,0.4-0.5,0.5-0.8c0.1-0.3,0.2-0.6,0.2-0.9
		c0-0.3-0.1-0.6-0.2-0.9c-0.1-0.3-0.3-0.5-0.5-0.8c-0.2-0.2-0.5-0.4-0.8-0.5c-0.3-0.1-0.6-0.2-0.9-0.2c-0.3,0-0.7,0.1-1,0.2
		c-0.3,0.1-0.5,0.3-0.8,0.5c-0.2,0.2-0.4,0.5-0.5,0.8C261.1,83.1,261,83.4,261,83.7z"/>
	<path class="st1" d="M271,78.9h2.9v1.3h0c0.1-0.2,0.2-0.4,0.4-0.6c0.2-0.2,0.4-0.4,0.6-0.5c0.2-0.1,0.5-0.3,0.8-0.4s0.6-0.1,1-0.1
		c0.8,0,1.4,0.1,1.9,0.4c0.5,0.2,0.8,0.6,1.1,1c0.3,0.4,0.4,0.9,0.5,1.5c0.1,0.6,0.1,1.2,0.1,1.8v5.4h-3v-4.8c0-0.3,0-0.6,0-0.9
		c0-0.3-0.1-0.6-0.2-0.8c-0.1-0.3-0.3-0.5-0.5-0.6c-0.2-0.2-0.5-0.2-0.9-0.2c-0.4,0-0.7,0.1-0.9,0.2c-0.2,0.1-0.4,0.3-0.6,0.6
		c-0.1,0.2-0.2,0.5-0.3,0.8c0,0.3-0.1,0.6-0.1,0.9v4.9h-3V78.9z"/>
	<path class="st1" d="M282.4,75.8c0-0.5,0.2-0.9,0.5-1.2c0.3-0.3,0.8-0.5,1.2-0.5c0.5,0,0.9,0.2,1.2,0.5c0.3,0.3,0.5,0.8,0.5,1.2
		c0,0.5-0.2,0.9-0.5,1.2s-0.8,0.5-1.2,0.5c-0.5,0-0.9-0.2-1.2-0.5S282.4,76.3,282.4,75.8z M282.6,78.9h3v9.8h-3V78.9z"/>
	<path class="st1" d="M294.5,81.3h-2.7v3.3c0,0.3,0,0.5,0,0.7c0,0.2,0.1,0.4,0.2,0.6s0.2,0.3,0.4,0.4c0.2,0.1,0.5,0.1,0.8,0.1
		c0.2,0,0.4,0,0.6,0s0.5-0.1,0.6-0.2v2.5c-0.3,0.1-0.7,0.2-1,0.2c-0.4,0-0.7,0.1-1.1,0.1c-0.5,0-1-0.1-1.4-0.2
		c-0.4-0.1-0.8-0.3-1.1-0.5c-0.3-0.2-0.6-0.5-0.8-0.9c-0.2-0.4-0.3-0.8-0.3-1.4v-4.6h-1.9v-2.4h1.9V76h3v2.9h2.7V81.3z"/>
	<path class="st1" d="M295.8,75.8c0-0.5,0.2-0.9,0.5-1.2c0.3-0.3,0.8-0.5,1.2-0.5c0.5,0,0.9,0.2,1.2,0.5c0.3,0.3,0.5,0.8,0.5,1.2
		c0,0.5-0.2,0.9-0.5,1.2s-0.8,0.5-1.2,0.5c-0.5,0-0.9-0.2-1.2-0.5S295.8,76.3,295.8,75.8z M296,78.9h3v9.8h-3V78.9z"/>
	<path class="st1" d="M300.2,78.9h3.3l2.5,6.6h0l2.3-6.6h3l-3.9,9.8h-3.2L300.2,78.9z"/>
	<path class="st1" d="M312.1,83.8c0-0.8,0.1-1.5,0.4-2.1c0.3-0.6,0.7-1.2,1.2-1.6c0.5-0.4,1.1-0.8,1.7-1c0.7-0.2,1.4-0.4,2.1-0.4
		s1.5,0.1,2.1,0.4c0.7,0.2,1.2,0.6,1.7,1c0.5,0.4,0.9,1,1.2,1.6c0.3,0.6,0.4,1.3,0.4,2.1c0,0.8-0.1,1.5-0.4,2.1
		c-0.3,0.6-0.7,1.2-1.2,1.6c-0.5,0.5-1.1,0.8-1.7,1c-0.7,0.2-1.4,0.4-2.1,0.4s-1.5-0.1-2.1-0.4c-0.7-0.2-1.2-0.6-1.7-1
		c-0.5-0.4-0.9-1-1.2-1.6S312.1,84.5,312.1,83.8z M315.1,83.8c0,0.7,0.2,1.3,0.6,1.8c0.4,0.5,1,0.7,1.8,0.7s1.4-0.2,1.8-0.7
		c0.4-0.5,0.6-1.1,0.6-1.8c0-0.7-0.2-1.3-0.6-1.8c-0.4-0.5-1-0.7-1.8-0.7s-1.4,0.2-1.8,0.7C315.3,82.4,315.1,83,315.1,83.8z"/>
	<path class="st1" d="M340.3,78.1c-0.3-0.4-0.7-0.7-1.1-0.9c-0.5-0.2-1-0.3-1.6-0.3c-0.6,0-1.1,0.1-1.6,0.3c-0.5,0.2-0.9,0.5-1.3,1
		c-0.4,0.4-0.7,0.9-0.9,1.5s-0.3,1.2-0.3,1.8c0,0.7,0.1,1.3,0.3,1.8s0.5,1,0.9,1.4c0.4,0.4,0.8,0.7,1.3,1c0.5,0.2,1,0.3,1.6,0.3
		c0.6,0,1.2-0.1,1.7-0.4s0.9-0.6,1.2-1.1l2.6,2c-0.6,0.8-1.4,1.5-2.3,1.9c-0.9,0.4-1.9,0.6-2.9,0.6c-1.1,0-2.1-0.2-3.1-0.5
		c-0.9-0.3-1.8-0.8-2.4-1.5c-0.7-0.7-1.2-1.4-1.6-2.4c-0.4-0.9-0.6-2-0.6-3.1c0-1.1,0.2-2.2,0.6-3.1c0.4-0.9,0.9-1.7,1.6-2.4
		c0.7-0.7,1.5-1.2,2.4-1.5c0.9-0.3,2-0.5,3.1-0.5c0.4,0,0.8,0,1.3,0.1c0.4,0.1,0.9,0.2,1.3,0.4c0.4,0.2,0.8,0.4,1.2,0.6
		c0.4,0.3,0.7,0.6,1,1L340.3,78.1z"/>
	<path class="st1" d="M344.1,83.8c0-0.8,0.1-1.5,0.4-2.1c0.3-0.6,0.7-1.2,1.2-1.6s1.1-0.8,1.7-1c0.7-0.2,1.4-0.4,2.1-0.4
		c0.8,0,1.5,0.1,2.1,0.4c0.7,0.2,1.2,0.6,1.7,1s0.9,1,1.2,1.6c0.3,0.6,0.4,1.3,0.4,2.1c0,0.8-0.1,1.5-0.4,2.1
		c-0.3,0.6-0.7,1.2-1.2,1.6c-0.5,0.5-1.1,0.8-1.7,1c-0.7,0.2-1.4,0.4-2.1,0.4c-0.8,0-1.5-0.1-2.1-0.4c-0.7-0.2-1.2-0.6-1.7-1
		c-0.5-0.4-0.9-1-1.2-1.6C344.2,85.2,344.1,84.5,344.1,83.8z M347.1,83.8c0,0.7,0.2,1.3,0.6,1.8c0.4,0.5,1,0.7,1.8,0.7
		s1.4-0.2,1.8-0.7s0.6-1.1,0.6-1.8c0-0.7-0.2-1.3-0.6-1.8s-1-0.7-1.8-0.7s-1.4,0.2-1.8,0.7C347.3,82.4,347.1,83,347.1,83.8z"/>
	<path class="st1" d="M356.7,78.9h2.9v1.3h0c0.1-0.2,0.2-0.4,0.4-0.6c0.2-0.2,0.4-0.4,0.6-0.5s0.5-0.3,0.8-0.4
		c0.3-0.1,0.6-0.1,1-0.1c0.8,0,1.4,0.1,1.9,0.4c0.5,0.2,0.8,0.6,1.1,1c0.3,0.4,0.4,0.9,0.5,1.5c0.1,0.6,0.1,1.2,0.1,1.8v5.4h-3v-4.8
		c0-0.3,0-0.6,0-0.9s-0.1-0.6-0.2-0.8c-0.1-0.3-0.3-0.5-0.5-0.6c-0.2-0.2-0.5-0.2-0.9-0.2c-0.4,0-0.7,0.1-0.9,0.2
		c-0.2,0.1-0.4,0.3-0.6,0.6c-0.1,0.2-0.2,0.5-0.3,0.8c0,0.3-0.1,0.6-0.1,0.9v4.9h-3V78.9z"/>
	<path class="st1" d="M378.5,88.7h-2.8v-1.3h0c-0.1,0.2-0.3,0.4-0.5,0.5c-0.2,0.2-0.4,0.3-0.7,0.5c-0.3,0.1-0.6,0.3-0.9,0.4
		c-0.3,0.1-0.6,0.1-1,0.1c-0.7,0-1.4-0.1-2-0.4c-0.6-0.2-1.1-0.6-1.5-1c-0.4-0.4-0.7-1-1-1.6c-0.2-0.6-0.3-1.3-0.3-2
		c0-0.7,0.1-1.3,0.3-2c0.2-0.6,0.5-1.2,0.9-1.7c0.4-0.5,0.8-0.9,1.4-1.2s1.2-0.4,1.9-0.4c0.6,0,1.2,0.1,1.8,0.3s1,0.5,1.3,1h0v-6.5
		h3V88.7z M375.7,83.8c0-0.7-0.2-1.3-0.6-1.8c-0.4-0.5-1-0.7-1.8-0.7s-1.4,0.2-1.8,0.7c-0.4,0.5-0.6,1.1-0.6,1.8
		c0,0.7,0.2,1.3,0.6,1.8c0.4,0.5,1,0.7,1.8,0.7s1.4-0.2,1.8-0.7C375.5,85.1,375.7,84.5,375.7,83.8z"/>
	<path class="st1" d="M390.3,88.7h-2.9v-1.3h0c-0.1,0.2-0.2,0.4-0.4,0.6c-0.2,0.2-0.4,0.4-0.6,0.5s-0.5,0.3-0.8,0.4s-0.6,0.1-1,0.1
		c-0.8,0-1.4-0.1-1.9-0.4c-0.5-0.2-0.8-0.6-1.1-1c-0.3-0.4-0.4-0.9-0.5-1.5c-0.1-0.6-0.1-1.2-0.1-1.8v-5.4h3v4.8c0,0.3,0,0.6,0,0.9
		s0.1,0.6,0.2,0.8s0.3,0.5,0.5,0.6c0.2,0.2,0.5,0.2,0.9,0.2s0.7-0.1,0.9-0.2c0.2-0.1,0.4-0.3,0.6-0.6c0.1-0.2,0.2-0.5,0.3-0.8
		c0-0.3,0.1-0.6,0.1-0.9v-4.9h3V88.7z"/>
	<path class="st1" d="M399.1,82c-0.1-0.2-0.4-0.4-0.6-0.5c-0.3-0.1-0.6-0.2-0.9-0.2c-0.8,0-1.4,0.2-1.8,0.7s-0.6,1.1-0.6,1.8
		c0,0.7,0.2,1.3,0.6,1.8s1,0.7,1.8,0.7c0.3,0,0.6-0.1,0.9-0.2c0.2-0.1,0.4-0.3,0.6-0.5l2,2.1c-0.5,0.5-1,0.8-1.7,1
		c-0.6,0.2-1.2,0.3-1.8,0.3c-0.8,0-1.5-0.1-2.1-0.4c-0.7-0.2-1.2-0.6-1.7-1c-0.5-0.4-0.9-1-1.2-1.6c-0.3-0.6-0.4-1.3-0.4-2.1
		c0-0.8,0.1-1.5,0.4-2.1c0.3-0.6,0.7-1.2,1.2-1.6c0.5-0.4,1.1-0.8,1.7-1c0.7-0.2,1.4-0.4,2.1-0.4c0.6,0,1.2,0.1,1.8,0.3
		c0.6,0.2,1.2,0.5,1.7,1L399.1,82z"/>
	<path class="st1" d="M408.8,81.3h-2.7v3.3c0,0.3,0,0.5,0,0.7c0,0.2,0.1,0.4,0.2,0.6s0.2,0.3,0.4,0.4c0.2,0.1,0.5,0.1,0.8,0.1
		c0.2,0,0.4,0,0.6,0s0.5-0.1,0.6-0.2v2.5c-0.3,0.1-0.7,0.2-1,0.2c-0.4,0-0.7,0.1-1.1,0.1c-0.5,0-1-0.1-1.4-0.2
		c-0.4-0.1-0.8-0.3-1.1-0.5c-0.3-0.2-0.6-0.5-0.8-0.9c-0.2-0.4-0.3-0.8-0.3-1.4v-4.6h-1.9v-2.4h1.9V76h3v2.9h2.7V81.3z"/>
	<path class="st1" d="M419.8,88.7h-2.9v-1.3h0c-0.1,0.2-0.2,0.4-0.4,0.6c-0.2,0.2-0.4,0.4-0.6,0.5c-0.2,0.1-0.5,0.3-0.8,0.4
		s-0.6,0.1-1,0.1c-0.8,0-1.4-0.1-1.9-0.4c-0.5-0.2-0.8-0.6-1.1-1c-0.3-0.4-0.4-0.9-0.5-1.5c-0.1-0.6-0.1-1.2-0.1-1.8v-5.4h3v4.8
		c0,0.3,0,0.6,0,0.9c0,0.3,0.1,0.6,0.2,0.8s0.3,0.5,0.5,0.6c0.2,0.2,0.5,0.2,0.9,0.2c0.4,0,0.7-0.1,0.9-0.2c0.2-0.1,0.4-0.3,0.6-0.6
		c0.1-0.2,0.2-0.5,0.3-0.8s0.1-0.6,0.1-0.9v-4.9h3V88.7z"/>
	<path class="st1" d="M428,87.4L428,87.4c-0.4,0.5-0.8,0.9-1.4,1.1s-1.1,0.3-1.8,0.3c-0.5,0-0.9-0.1-1.3-0.2
		c-0.4-0.1-0.8-0.3-1.1-0.6c-0.3-0.3-0.6-0.6-0.8-0.9c-0.2-0.4-0.3-0.8-0.3-1.3c0-0.6,0.1-1,0.3-1.4c0.2-0.4,0.5-0.7,0.8-1
		s0.8-0.5,1.2-0.6s0.9-0.2,1.4-0.3c0.5-0.1,1-0.1,1.5-0.1c0.5,0,0.9,0,1.4,0c0-0.5-0.2-1-0.6-1.3c-0.4-0.3-0.8-0.5-1.4-0.5
		c-0.5,0-0.9,0.1-1.4,0.3c-0.4,0.2-0.8,0.5-1.1,0.9l-1.6-1.6c0.6-0.5,1.2-0.9,2-1.2c0.8-0.3,1.5-0.4,2.3-0.4c0.9,0,1.6,0.1,2.2,0.3
		c0.6,0.2,1,0.5,1.4,1c0.3,0.4,0.6,1,0.7,1.6c0.1,0.6,0.2,1.3,0.2,2.2v5H428V87.4z M427.3,84.4c-0.2,0-0.5,0-0.9,0
		c-0.3,0-0.7,0.1-1,0.2c-0.3,0.1-0.6,0.2-0.8,0.4c-0.2,0.2-0.3,0.5-0.3,0.8c0,0.4,0.2,0.6,0.5,0.8c0.3,0.2,0.6,0.3,1,0.3
		c0.3,0,0.6,0,0.9-0.1c0.3-0.1,0.5-0.2,0.7-0.3s0.4-0.3,0.5-0.6c0.1-0.2,0.2-0.5,0.2-0.8v-0.6H427.3z"/>
	<path class="st1" d="M432.8,73.4h3v15.2h-3V73.4z"/>
</g>
<g>
	<defs>
		<path id="SVGID_1_" d="M75.1,111.6c-0.3-0.7-0.8-1.3-1.5-1.6l4-15.3c0.3,0,0.7-0.1,1-0.2l6.7,8.3c-0.5,0.6-0.8,1.3-0.8,2
			c0,0.8,0.3,1.5,0.8,2.1c-2.2,3-5.6,4.7-9.3,4.7C75.6,111.6,75.4,111.6,75.1,111.6 M63.4,105.3v-7.2c1.2-0.3,2.1-1.3,2.3-2.5
			l9.4-2.2c0.2,0.4,0.6,0.8,1,1l-4,15.3c-0.7,0-1.4,0.3-2,0.8C66.1,108.8,63.4,106.1,63.4,105.3 M79.8,93.5c0.3-0.5,0.5-1.1,0.5-1.7
			c0-0.2,0-0.4-0.1-0.6l8.7-6.7c0.3,0.3,0.7,0.6,1.1,0.8l-2.5,16.3c-0.3,0-0.7,0.1-1,0.2L79.8,93.5z M89.1,102.1l2.5-16.3
			c1,0,2-0.5,2.6-1.3l6.7,4.3c-0.1,0.3-0.1,0.6-0.1,0.9c0,1.3,0.8,2.5,2,3c-1,3.3-3.6,6.2-7.5,8.4c-1.6,0.9-3.3,1.7-5,2.2
			C90,102.7,89.6,102.4,89.1,102.1 M95,82.9c0-0.2,0.1-0.5,0.1-0.7c0-0.4-0.1-0.8-0.2-1.2l6.1-4c0.6,0.8,1.5,1.3,2.5,1.3
			c0.6,0,1.2-0.2,1.8-0.5c0.5,0.9,0.8,1.9,0.9,3c0.2,2-0.1,4-0.8,5.8c-1.2-0.5-2.6-0.3-3.5,0.6L95,82.9z M63.3,92V73.6l0.2-0.1
			l11.9,16.1c-0.6,0.5-0.9,1.3-0.9,2.1l-9.1,2.1C65.1,92.9,64.3,92.2,63.3,92 M64.9,72.6c0.1-0.1,0.2-0.3,0.3-0.4L88,81.8
			c0,0.1,0,0.3,0,0.4c0,0.3,0.1,0.6,0.1,0.9l-8.6,6.6c-0.5-0.6-1.3-0.9-2.1-0.9c-0.2,0-0.3,0-0.5,0L64.9,72.6z M66,70.8l9.4-0.8
			c0.3,1.4,1.6,2.4,3,2.4c0.5,0,1-0.1,1.5-0.4l7.8,7.8L66,70.8z M81,70.9c0.3-0.5,0.4-1,0.4-1.5c0-0.4-0.1-0.9-0.3-1.3l14.2-10.4
			c0.6,0.6,1.4,1,2.3,1h0.1l4.1,13.7c-1,0.6-1.6,1.6-1.6,2.7c0,0.1,0,0.3,0,0.4l-6.3,4.1c-1.2-1.2-3.1-1.3-4.5-0.3L81,70.9z
			 M63.3,67.5V49.2l0.2-0.1l12.6,18.1c-0.3,0.3-0.5,0.7-0.7,1.1l-10.1,0.8C64.9,68.4,64.2,67.8,63.3,67.5 M64.9,48.2
			c0.1-0.1,0.2-0.2,0.3-0.4l29.3,7.3c0,0.1,0,0.2,0,0.4c0,0.2,0,0.5,0.1,0.7L80,66.8c-0.5-0.3-1.1-0.5-1.7-0.5c-0.3,0-0.5,0-0.8,0.1
			L64.9,48.2z M65.7,46.2c0,0,0-0.1,0-0.1c0-0.2,0-0.5-0.1-0.7L76,39.6c0.5,0.4,1.2,0.7,1.8,0.7c0.5,0,1-0.1,1.5-0.4l15.2,13.6
			L65.7,46.2z M99.3,58.2c1.5-0.9,2-2.9,1.1-4.4c-0.3-0.5-0.8-1-1.4-1.2l3.8-17.2c0.4,0,0.8-0.1,1.2-0.3c5.6,5.7,6.4,13.6,6.1,19.6
			c-0.4,7.3-2.9,14.2-5.2,17.7c-0.4-0.2-0.9-0.4-1.4-0.4l0,0L99.3,58.2z M80.4,38.6c0.2-0.4,0.3-0.8,0.3-1.2c0-0.4-0.1-0.8-0.3-1.2
			l8.1-8c0.7,0.5,1.5,0.7,2.3,0.7c0.1,0,0.2,0,0.3,0l5.1,23.6l-0.1,0.1L80.4,38.6z M92.7,28.5c0.5-0.2,0.9-0.6,1.2-1l5.6,3.9
			c-0.1,0.3-0.1,0.5-0.1,0.8c0,1.2,0.7,2.3,1.8,2.9l-3.6,16.2L92.7,28.5z M63.3,43.1V24.8c0.2-0.1,0.4-0.1,0.5-0.2l11.4,11.5
			c-0.2,0.4-0.3,0.9-0.3,1.3c0,0.3,0,0.5,0.1,0.8L64.8,44C64.4,43.6,63.9,43.3,63.3,43.1 M65.1,23.5c0.1-0.2,0.2-0.3,0.3-0.5
			l21.5,2.4c0,0.6,0.2,1.2,0.6,1.8L79.4,35c-0.9-0.6-2-0.6-2.9-0.1L65.1,23.5z M75,17.5l11.5,6.1l-20.9-2.3c0-0.2-0.1-0.4-0.2-0.7
			l5-3C71.7,18.8,73.7,18.8,75,17.5C74.9,17.5,75,17.5,75,17.5 M88.3,13.2c10.4,3.6,12.6,11.6,12.9,16c-0.4,0.2-0.7,0.4-1,0.7
			l-5.7-3.9c0.6-2.1-0.6-4.3-2.7-4.9c-0.4-0.1-0.7-0.2-1.1-0.2c-1.2,0-2.3,0.5-3,1.4L75.8,16c0-0.1,0-0.3,0-0.4l6.7-1.9
			c0.8,1.6,2.7,2.2,4.3,1.3C87.5,14.6,88,14,88.3,13.2 M63.3,18.7V7.5c3.6-2.1,7.9-2.7,12-1.6C78.1,6.6,80.8,8,83,10
			c-0.5,0.5-0.8,1.3-0.8,2l-6.7,2c-0.8-1.6-2.7-2.2-4.3-1.4c-1,0.5-1.7,1.6-1.7,2.8c0,0.3,0.1,0.7,0.2,1l-5.1,3
			C64.2,19.1,63.8,18.8,63.3,18.7 M62,6.3l-0.4,0.3v12.1c-1.7,0.5-2.7,2.2-2.2,3.9c0.3,1.1,1.1,1.9,2.2,2.2v18.3
			c-1.7,0.5-2.7,2.2-2.2,3.9c0.3,1.1,1.1,1.9,2.2,2.2v18.3c-1.7,0.5-2.7,2.2-2.2,3.9c0.3,1.1,1.1,1.9,2.2,2.2V92
			c-1.7,0.5-2.7,2.2-2.2,3.9c0.3,1.1,1.1,1.9,2.2,2.2v7.2c0,1.8,3.4,4.8,7.5,6.6c-0.1,0.3-0.1,0.6-0.2,0.9c0,1.8,1.4,3.2,3.2,3.2
			c1.6,0,2.9-1.1,3.2-2.6c0.2,0,0.4,0,0.6,0c4.3,0,8.3-2,10.8-5.5c0.3,0.1,0.7,0.2,1,0.2c1.8,0,3.2-1.4,3.2-3.2l0,0
			c1.8-0.6,3.6-1.4,5.3-2.4c4.4-2.5,7.3-5.9,8.4-9.8c1.5-0.3,2.6-1.6,2.6-3.1c0-0.6-0.2-1.2-0.5-1.8c1-2.2,1.5-4.7,1.2-7.2
			c-0.1-1.5-0.6-2.9-1.5-4.2c0.2-0.4,0.3-0.8,0.3-1.3c0-0.6-0.2-1.2-0.5-1.7c2.6-3.9,5.2-11.3,5.6-18.7c0.4-6.3-0.6-14.7-6.5-20.8
			c0.3-0.5,0.5-1.1,0.5-1.7c0-1.6-1.2-3-2.8-3.2c-0.4-5-2.9-13.9-14.5-17.6c-0.3-1.5-1.6-2.5-3.1-2.5c-0.3,0-0.5,0-0.8,0.1
			c-2.5-2.3-5.5-4-8.9-4.8c-1.5-0.4-3-0.6-4.6-0.6C67.9,3.6,64.7,4.5,62,6.3"/>
	</defs>
	<clipPath id="SVGID_2_">
		<use xlink:href="#SVGID_1_"  style="overflow:visible;"/>
	</clipPath>
	<g class="st2">
		
			<linearGradient id="SVGID_3_" gradientUnits="userSpaceOnUse" x1="-460.9097" y1="-2.3061" x2="-460.3397" y2="-2.3061" gradientTransform="matrix(0 -214.79 214.79 0 581.0434 -98878.3594)">
			<stop  offset="0" style="stop-color:#2E3192"/>
			<stop  offset="0.99" style="stop-color:#EF4136"/>
			<stop  offset="1" style="stop-color:#EF4136"/>
		</linearGradient>
		<rect x="59.3" y="3.7" class="st3" width="52.9" height="112.3"/>
	</g>
</g>
<g>
	<defs>
		<path id="SVGID_4_" d="M30.1,106.9c0.5-0.6,0.8-1.3,0.8-2.1c0-0.7-0.3-1.4-0.8-2l6.7-8.3c0.3,0.1,0.7,0.2,1,0.2l4,15.3
			c-0.7,0.4-1.2,0.9-1.5,1.7c-0.3,0-0.5,0-0.8,0C35.8,111.7,32.3,109.9,30.1,106.9 M43.4,109.6l-4-15.3c0.4-0.2,0.8-0.6,1-1l9.4,2.2
			c0.2,1.2,1.1,2.2,2.3,2.5v7.2c-0.1,0.8-2.8,3.5-6.7,5.2C44.8,109.9,44.1,109.6,43.4,109.6 M27.8,101.7l-2.6-16.3
			c0.4-0.2,0.8-0.5,1.1-0.8l8.6,6.6c0,0.2,0,0.4,0,0.6c0,0.6,0.2,1.2,0.5,1.7l-6.7,8.4C28.5,101.8,28.1,101.7,27.8,101.7 M20,100.9
			c-4-2.3-6.4-5.1-7.5-8.4c1.2-0.5,2-1.7,2-3c0-0.3,0-0.6-0.1-0.9l6.6-4.2c0.6,0.8,1.6,1.3,2.6,1.3l2.5,16.3
			c-0.5,0.3-0.9,0.7-1.1,1.1C23.3,102.6,21.6,101.8,20,100.9 M14.4,77.1l6.1,4c-0.1,0.4-0.2,0.8-0.2,1.2c0,0.2,0,0.5,0.1,0.7
			l-6.8,4.3c-0.9-0.9-2.3-1.2-3.5-0.7c-0.8-1.9-1-3.9-0.8-5.8c0.1-1.1,0.4-2.1,0.9-3C11.5,78.7,13.4,78.4,14.4,77.1 M40.8,91.8
			c0-0.8-0.3-1.6-0.9-2.1l11.9-16.1c0.1,0,0.1,0,0.2,0.1V92c-1,0.3-1.8,1-2.1,2L40.8,91.8z M27.2,83.2c0.1-0.3,0.1-0.6,0.1-0.9
			c0-0.1,0-0.3,0-0.4l22.8-9.6c0.1,0.2,0.2,0.3,0.3,0.4L38.3,89c-0.2,0-0.3,0-0.5,0c-0.8,0-1.5,0.3-2.1,0.9L27.2,83.2z M39.9,70
			l9.3,0.7l-21.6,9.1l7.8-7.8c0.5,0.3,1,0.4,1.5,0.4C38.4,72.4,39.6,71.4,39.9,70 M20,57.7l14.2,10.4c-0.2,0.4-0.3,0.8-0.3,1.3
			c0,0.5,0.1,1,0.4,1.5l-8.5,8.5c-1.4-1-3.2-0.9-4.5,0.3L15,75.5c0-0.1,0-0.3,0-0.4c0-1.1-0.6-2.2-1.6-2.7l4.1-13.7h0.1
			C18.5,58.7,19.3,58.3,20,57.7 M39.7,68.4c-0.1-0.4-0.4-0.8-0.7-1.1l12.7-18.2l0.2,0.1v18.3c-0.9,0.2-1.6,0.9-2,1.7L39.7,68.4z
			 M20.7,56.2c0.1-0.2,0.1-0.5,0.1-0.7c0-0.1,0-0.2,0-0.4l29.3-7.3c0.1,0.1,0.2,0.2,0.3,0.4L37.7,66.4c-0.3-0.1-0.5-0.1-0.8-0.1
			c-0.6,0-1.2,0.2-1.7,0.5L20.7,56.2z M39.3,39.6l10.4,5.8c-0.1,0.2-0.1,0.5-0.1,0.7c0,0,0,0.1,0,0.1l-28.8,7.2L36,39.8
			c0.4,0.3,1,0.4,1.5,0.4C38.1,40.3,38.8,40,39.3,39.6 M5.2,54.6c-0.3-5.9,0.5-13.8,6.1-19.6c0.4,0.2,0.8,0.3,1.1,0.3l3.8,17.2
			c-1.6,0.7-2.3,2.6-1.5,4.2c0.3,0.6,0.7,1,1.2,1.4l-4.1,13.8h-0.1c-0.5,0-1,0.1-1.4,0.4C8.2,68.8,5.7,61.9,5.2,54.6 M26.7,28.3
			l8.1,8c-0.2,0.4-0.3,0.8-0.3,1.2c0,0.4,0.1,0.9,0.3,1.2l-15.7,14l-0.1-0.1L24.2,29c0.1,0,0.2,0,0.3,0C25.3,29,26.1,28.7,26.7,28.3
			 M14.1,35.1c1.1-0.5,1.8-1.6,1.8-2.9c0-0.3,0-0.5-0.1-0.8l5.6-3.8c0.3,0.4,0.7,0.7,1.2,1l-4.9,22.7L14.1,35.1z M40.2,38.2
			c0.1-0.3,0.1-0.5,0.1-0.8c0-0.5-0.1-0.9-0.3-1.3l11.4-11.5c0.2,0.1,0.4,0.2,0.5,0.2v18.3c-0.6,0.2-1.1,0.5-1.5,0.9L40.2,38.2z
			 M27.9,27.1c0.3-0.5,0.5-1.2,0.6-1.8l21.5-2.4c0.1,0.2,0.2,0.4,0.3,0.5L38.8,34.9c-0.9-0.5-2-0.5-2.9,0.1L27.9,27.1z M40.3,17.4
			c1.1,1.3,3.1,1.4,4.4,0.3c0,0,0,0,0.1-0.1l5,3c-0.1,0.2-0.1,0.4-0.2,0.7l-20.9,2.3L40.3,17.4z M14,29.3c0.4-4.4,2.5-12.5,12.9-16
			c0.6,1.7,2.4,2.5,4.1,1.9c0.7-0.3,1.4-0.8,1.7-1.5l6.7,1.9c0,0.1,0,0.3,0,0.4l-12,6.4c-0.7-0.9-1.8-1.4-3-1.4c-2.2,0-4,1.7-4,3.9
			c0,0.4,0.1,0.8,0.2,1.2L15,30C14.7,29.7,14.4,29.5,14,29.3 M33.2,12c0-0.7-0.3-1.5-0.8-2c2.2-2,4.8-3.4,7.7-4.1
			c4.1-1.1,8.4-0.5,12,1.6v11.1c-0.4,0.1-0.9,0.4-1.2,0.7l-5.1-3c0.1-0.3,0.2-0.7,0.2-1c0-1.8-1.5-3.1-3.2-3.1
			c-1.2,0-2.2,0.7-2.8,1.7L33.2,12z M39.6,4.2C36.3,5,33.3,6.7,30.8,9C30.5,9,30.2,8.9,30,8.9c-1.5,0-2.8,1-3.1,2.5
			C15.2,15.2,12.7,24.1,12.3,29c-1.6,0.2-2.8,1.6-2.8,3.2c0,0.6,0.2,1.2,0.5,1.7c-5.9,6.2-6.9,14.5-6.5,20.8
			c0.5,7.5,3,14.9,5.6,18.7c-0.3,0.5-0.5,1.1-0.5,1.7c0,0.4,0.1,0.9,0.3,1.3c-0.8,1.2-1.4,2.7-1.5,4.2c-0.3,2.5,0.1,5,1.2,7.2
			c-0.3,0.5-0.5,1.1-0.5,1.8c0,1.5,1.1,2.9,2.6,3.1c1.1,3.9,4,7.3,8.4,9.8c1.7,1,3.5,1.8,5.3,2.4l0,0c0,1.8,1.4,3.2,3.2,3.2
			c0.3,0,0.7-0.1,1-0.2c2.5,3.5,6.5,5.5,10.8,5.5c0.2,0,0.4,0,0.6,0c0.3,1.7,2,2.9,3.7,2.6c1.5-0.3,2.6-1.6,2.6-3.2
			c0-0.3-0.1-0.6-0.2-0.9c4.1-1.8,7.5-4.9,7.5-6.6v-7.2c1.7-0.5,2.7-2.2,2.2-3.9c-0.3-1.1-1.1-1.9-2.2-2.2V73.6
			c1.7-0.5,2.7-2.2,2.2-3.9c-0.3-1.1-1.1-1.9-2.2-2.2V49.2c1.7-0.5,2.7-2.2,2.2-3.9c-0.3-1.1-1.1-1.9-2.2-2.2V24.8
			c1.7-0.5,2.7-2.2,2.2-3.9c-0.3-1.1-1.1-1.9-2.2-2.2V6.5l-0.4-0.3c-2.7-1.7-5.9-2.6-9.1-2.6C42.7,3.7,41.1,3.9,39.6,4.2"/>
	</defs>
	<clipPath id="SVGID_5_">
		<use xlink:href="#SVGID_4_"  style="overflow:visible;"/>
	</clipPath>
	<g class="st4">
		
			<linearGradient id="SVGID_6_" gradientUnits="userSpaceOnUse" x1="-456.1148" y1="-1.9164" x2="-455.5349" y2="-1.9164" gradientTransform="matrix(1.071076e-14 174.92 174.92 -1.071076e-14 364.7874 79777.4531)">
			<stop  offset="0" style="stop-color:#2E3192"/>
			<stop  offset="0.99" style="stop-color:#EF4136"/>
			<stop  offset="1" style="stop-color:#EF4136"/>
		</linearGradient>
		<rect x="3.1" y="3.7" class="st5" width="52.9" height="112.3"/>
	</g>
</g>
</svg>
