<?xml version="1.0" encoding="utf-8"?>
<!-- Generator: Adobe Illustrator 23.1.1, SVG Export Plug-In . SVG Version: 6.00 Build 0)  -->
<svg version="1.1" id="Layer_1" xmlns="http://www.w3.org/2000/svg" xmlns:xlink="http://www.w3.org/1999/xlink" x="0px" y="0px"
	 viewBox="0 0 360 360" style="enable-background:new 0 0 360 360;" xml:space="preserve">
<style type="text/css">
	.st0{enable-background:new    ;}
	.st1{fill:#2E3192;}
	.st2{clip-path:url(#SVGID_2_);}
	.st3{fill:url(#SVGID_3_);}
	.st4{clip-path:url(#SVGID_5_);}
	.st5{fill:url(#SVGID_6_);}
</style>
<title>alejandra-logo-horizontal</title>
<g class="st0">
	<path class="st1" d="M32.5,268.1h6l14.2,32.7h-8.1l-2.8-6.9H29l-2.7,6.9h-7.9L32.5,268.1z M35.3,277.6l-4,10.2h8L35.3,277.6z"/>
	<path class="st1" d="M55.2,265.9h6.9v34.9h-6.9V265.9z"/>
	<path class="st1" d="M88.3,296.9c-1.1,1.4-2.5,2.5-4.2,3.3c-1.7,0.8-3.4,1.2-5.3,1.2c-1.7,0-3.3-0.3-4.9-0.8
		c-1.5-0.6-2.8-1.3-4-2.4c-1.1-1-2-2.3-2.7-3.7c-0.6-1.4-1-3.1-1-4.8c0-1.8,0.3-3.4,1-4.8c0.6-1.4,1.5-2.7,2.7-3.7
		c1.1-1,2.4-1.8,4-2.4c1.5-0.6,3.1-0.8,4.9-0.8c1.6,0,3.1,0.3,4.4,0.8c1.3,0.6,2.4,1.3,3.3,2.4c0.9,1,1.6,2.3,2.1,3.7
		c0.5,1.4,0.7,3.1,0.7,4.8v2.2H73.3c0.3,1.3,0.9,2.4,1.8,3.2s2.1,1.2,3.4,1.2c1.1,0,2.1-0.3,2.9-0.8c0.8-0.5,1.5-1.2,2.1-2
		L88.3,296.9z M82.5,287c0-1.2-0.4-2.2-1.2-3c-0.8-0.8-1.8-1.2-3.1-1.2c-0.8,0-1.4,0.1-2,0.4c-0.6,0.2-1.1,0.6-1.5,0.9
		s-0.7,0.8-1,1.3c-0.2,0.5-0.4,1-0.4,1.6H82.5z"/>
	<path class="st1" d="M100.6,302.5c0,1.4-0.1,2.7-0.4,3.9s-0.7,2.1-1.4,3c-0.6,0.8-1.5,1.4-2.6,1.9c-1.1,0.4-2.4,0.7-3.9,0.7
		c-0.5,0-1.1,0-1.6-0.1c-0.6,0-1.1-0.1-1.6-0.3l0.4-6.1c0.6,0.3,1.2,0.4,1.8,0.4c0.6,0,1-0.2,1.4-0.5c0.3-0.3,0.6-0.7,0.7-1.2
		c0.2-0.5,0.2-1,0.3-1.5c0-0.5,0-1,0-1.4v-22.9h6.9V302.5z M93.1,271.3c0-1.1,0.4-2.1,1.2-2.8c0.8-0.8,1.7-1.2,2.8-1.2
		c1.1,0,2.1,0.4,2.8,1.2c0.8,0.8,1.2,1.7,1.2,2.8c0,1.1-0.4,2.1-1.2,2.8c-0.8,0.8-1.7,1.2-2.8,1.2c-1.1,0-2.1-0.4-2.8-1.2
		C93.5,273.3,93.1,272.4,93.1,271.3z"/>
	<path class="st1" d="M119.7,298L119.7,298c-0.9,1.2-1.9,2.1-3.2,2.6c-1.3,0.5-2.6,0.8-4,0.8c-1,0-2.1-0.1-3-0.4s-1.8-0.7-2.6-1.3
		s-1.3-1.3-1.8-2.2c-0.4-0.9-0.6-1.9-0.6-3c0-1.3,0.2-2.4,0.7-3.3c0.5-0.9,1.1-1.6,1.9-2.2c0.8-0.6,1.7-1,2.8-1.4
		c1-0.3,2.1-0.6,3.3-0.7c1.1-0.2,2.2-0.2,3.4-0.3c1.1,0,2.2,0,3.1,0c0-1.2-0.4-2.2-1.3-2.9c-0.9-0.7-1.9-1.1-3.1-1.1
		c-1.1,0-2.2,0.2-3.1,0.7c-0.9,0.5-1.8,1.1-2.5,2l-3.7-3.8c1.3-1.2,2.8-2.1,4.5-2.7c1.7-0.6,3.5-0.9,5.4-0.9c2,0,3.7,0.3,5,0.8
		c1.3,0.5,2.4,1.3,3.1,2.2c0.8,1,1.3,2.2,1.6,3.6c0.3,1.4,0.5,3.1,0.5,5v11.4h-6.4V298z M118,291c-0.5,0-1.2,0-2,0.1
		c-0.8,0-1.5,0.2-2.3,0.4c-0.7,0.2-1.3,0.5-1.8,1c-0.5,0.4-0.8,1-0.8,1.8c0,0.8,0.4,1.4,1.1,1.8c0.7,0.4,1.4,0.6,2.2,0.6
		c0.7,0,1.3-0.1,2-0.3s1.2-0.4,1.7-0.8c0.5-0.3,0.9-0.8,1.2-1.3c0.3-0.5,0.4-1.1,0.4-1.8V291H118z"/>
	<path class="st1" d="M130.4,278.4h6.6v3h0.1c0.2-0.4,0.5-0.9,0.9-1.3c0.4-0.4,0.9-0.8,1.4-1.2c0.6-0.3,1.2-0.6,1.9-0.8
		c0.7-0.2,1.5-0.3,2.3-0.3c1.8,0,3.2,0.3,4.2,0.8c1.1,0.5,1.9,1.3,2.5,2.2s1,2.1,1.2,3.4c0.2,1.3,0.3,2.7,0.3,4.2v12.4h-6.9v-11
		c0-0.6,0-1.3-0.1-2c0-0.7-0.2-1.3-0.4-1.9c-0.2-0.6-0.6-1.1-1.1-1.4c-0.5-0.4-1.2-0.6-2.1-0.6c-0.9,0-1.6,0.2-2.2,0.5
		c-0.6,0.3-1,0.8-1.3,1.3c-0.3,0.5-0.5,1.1-0.6,1.8c-0.1,0.7-0.1,1.4-0.1,2.1v11.2h-6.9V278.4z"/>
	<path class="st1" d="M180.4,300.8h-6.4v-3H174c-0.3,0.4-0.6,0.8-1.1,1.2c-0.4,0.4-1,0.8-1.6,1.1c-0.6,0.3-1.3,0.6-2,0.8
		c-0.7,0.2-1.5,0.3-2.2,0.3c-1.7,0-3.2-0.3-4.5-0.9c-1.4-0.6-2.5-1.4-3.5-2.4c-1-1-1.7-2.3-2.2-3.7c-0.5-1.4-0.8-3-0.8-4.7
		c0-1.6,0.2-3.1,0.7-4.5c0.5-1.4,1.2-2.7,2-3.8c0.9-1.1,1.9-2,3.2-2.7c1.3-0.7,2.7-1,4.3-1c1.4,0,2.8,0.2,4,0.7
		c1.2,0.4,2.3,1.2,3.1,2.3h0.1v-14.9h6.9V300.8z M174.1,289.6c0-1.7-0.5-3.1-1.5-4.1c-1-1-2.3-1.6-4.1-1.6c-1.8,0-3.1,0.5-4.1,1.6
		c-1,1-1.5,2.4-1.5,4.1c0,1.7,0.5,3.1,1.5,4.1c1,1,2.3,1.6,4.1,1.6c1.8,0,3.1-0.5,4.1-1.6C173.6,292.6,174.1,291.3,174.1,289.6z"/>
	<path class="st1" d="M186,278.4h6.9v3.6h0.1c0.7-1.4,1.6-2.4,2.6-3.1c1-0.7,2.3-1,3.8-1c0.4,0,0.8,0,1.2,0c0.4,0,0.8,0.1,1.1,0.2
		v6.3c-0.5-0.2-1-0.3-1.5-0.3c-0.5-0.1-1-0.1-1.5-0.1c-1.3,0-2.4,0.2-3.1,0.6c-0.8,0.4-1.4,0.9-1.8,1.5c-0.4,0.7-0.7,1.5-0.8,2.4
		c-0.1,0.9-0.2,1.9-0.2,3v9.4H186V278.4z"/>
	<path class="st1" d="M218.8,298L218.8,298c-0.9,1.2-1.9,2.1-3.2,2.6c-1.3,0.5-2.6,0.8-4,0.8c-1,0-2.1-0.1-3-0.4s-1.8-0.7-2.6-1.3
		c-0.7-0.6-1.3-1.3-1.8-2.2c-0.4-0.9-0.6-1.9-0.6-3c0-1.3,0.2-2.4,0.7-3.3c0.5-0.9,1.1-1.6,1.9-2.2s1.7-1,2.8-1.4
		c1-0.3,2.1-0.6,3.3-0.7c1.1-0.2,2.2-0.2,3.4-0.3c1.1,0,2.2,0,3.1,0c0-1.2-0.4-2.2-1.3-2.9c-0.9-0.7-1.9-1.1-3.1-1.1
		c-1.1,0-2.2,0.2-3.1,0.7s-1.8,1.1-2.5,2l-3.7-3.8c1.3-1.2,2.8-2.1,4.5-2.7c1.7-0.6,3.5-0.9,5.4-0.9c2,0,3.7,0.3,5,0.8
		c1.3,0.5,2.4,1.3,3.1,2.2c0.8,1,1.3,2.2,1.6,3.6c0.3,1.4,0.5,3.1,0.5,5v11.4h-6.4V298z M217.1,291c-0.5,0-1.2,0-2,0.1
		c-0.8,0-1.5,0.2-2.3,0.4c-0.7,0.2-1.3,0.5-1.8,1c-0.5,0.4-0.8,1-0.8,1.8c0,0.8,0.4,1.4,1.1,1.8c0.7,0.4,1.4,0.6,2.2,0.6
		c0.7,0,1.3-0.1,2-0.3s1.2-0.4,1.7-0.8c0.5-0.3,0.9-0.8,1.2-1.3c0.3-0.5,0.4-1.1,0.4-1.8V291H217.1z"/>
</g>
<g class="st0">
	<path class="st1" d="M248.7,274.5h-9.3v-6.4h25.9v6.4h-9.3v26.3h-7.2V274.5z"/>
</g>
<g class="st0">
	<path class="st1" d="M262.1,289.6c0-1.8,0.3-3.4,1-4.8c0.6-1.4,1.5-2.7,2.7-3.7c1.1-1,2.4-1.8,4-2.4c1.5-0.6,3.1-0.8,4.9-0.8
		c1.7,0,3.3,0.3,4.9,0.8c1.5,0.6,2.8,1.3,4,2.4c1.1,1,2,2.3,2.7,3.7c0.6,1.4,1,3.1,1,4.8c0,1.8-0.3,3.4-1,4.8
		c-0.6,1.4-1.5,2.7-2.7,3.7s-2.4,1.8-4,2.4c-1.5,0.6-3.1,0.8-4.9,0.8c-1.7,0-3.3-0.3-4.9-0.8c-1.5-0.6-2.8-1.3-4-2.4
		c-1.1-1-2-2.3-2.7-3.7C262.4,293,262.1,291.4,262.1,289.6z M269,289.6c0,1.7,0.5,3.1,1.5,4.1c1,1,2.3,1.6,4.1,1.6
		c1.8,0,3.1-0.5,4.1-1.6c1-1,1.5-2.4,1.5-4.1c0-1.7-0.5-3.1-1.5-4.1c-1-1-2.3-1.6-4.1-1.6c-1.8,0-3.1,0.5-4.1,1.6
		C269.5,286.5,269,287.9,269,289.6z"/>
	<path class="st1" d="M292,268.1h12.1c1.7,0,3.3,0.2,4.8,0.5c1.5,0.3,2.8,0.8,3.9,1.6c1.1,0.8,2,1.8,2.7,3c0.7,1.3,1,2.9,1,4.8
		c0,1.9-0.3,3.5-0.9,4.8c-0.6,1.3-1.5,2.3-2.5,3.1c-1.1,0.8-2.4,1.3-3.8,1.6s-3.1,0.5-4.8,0.5h-5.3v12.7H292V268.1z M299.2,282h4.8
		c0.6,0,1.3-0.1,1.9-0.2c0.6-0.1,1.1-0.3,1.6-0.6c0.5-0.3,0.9-0.7,1.2-1.2c0.3-0.5,0.4-1.1,0.4-1.9c0-0.8-0.2-1.5-0.6-2
		c-0.4-0.5-0.9-0.9-1.5-1.2c-0.6-0.3-1.3-0.5-2-0.5c-0.7-0.1-1.4-0.1-2.1-0.1h-3.7V282z"/>
	<path class="st1" d="M334.3,298L334.3,298c-0.9,1.2-1.9,2.1-3.2,2.6c-1.3,0.5-2.6,0.8-4,0.8c-1,0-2.1-0.1-3-0.4s-1.8-0.7-2.6-1.3
		c-0.7-0.6-1.3-1.3-1.8-2.2c-0.4-0.9-0.6-1.9-0.6-3c0-1.3,0.2-2.4,0.7-3.3c0.5-0.9,1.1-1.6,1.9-2.2c0.8-0.6,1.7-1,2.8-1.4
		c1-0.3,2.1-0.6,3.3-0.7c1.1-0.2,2.2-0.2,3.4-0.3c1.1,0,2.2,0,3.1,0c0-1.2-0.4-2.2-1.3-2.9c-0.9-0.7-1.9-1.1-3.1-1.1
		c-1.1,0-2.2,0.2-3.1,0.7c-0.9,0.5-1.8,1.1-2.5,2l-3.7-3.8c1.3-1.2,2.8-2.1,4.5-2.7c1.7-0.6,3.5-0.9,5.4-0.9c2,0,3.7,0.3,5,0.8
		c1.3,0.5,2.4,1.3,3.1,2.2s1.3,2.2,1.6,3.6s0.5,3.1,0.5,5v11.4h-6.4V298z M332.6,291c-0.5,0-1.2,0-2,0.1c-0.8,0-1.5,0.2-2.3,0.4
		c-0.7,0.2-1.3,0.5-1.8,1c-0.5,0.4-0.8,1-0.8,1.8c0,0.8,0.4,1.4,1.1,1.8c0.7,0.4,1.4,0.6,2.2,0.6c0.7,0,1.3-0.1,2-0.3
		s1.2-0.4,1.7-0.8s0.9-0.8,1.2-1.3c0.3-0.5,0.4-1.1,0.4-1.8V291H332.6z"/>
</g>
<g class="st0">
	<path class="st1" d="M7.9,317.7H14c0.9,0,1.7,0.1,2.4,0.2c0.8,0.2,1.4,0.4,2,0.8c0.6,0.4,1,0.9,1.4,1.5c0.3,0.6,0.5,1.5,0.5,2.4
		c0,1-0.2,1.8-0.5,2.4c-0.3,0.7-0.7,1.2-1.3,1.6s-1.2,0.7-1.9,0.8c-0.7,0.2-1.6,0.2-2.4,0.2h-2.7v6.4H7.9V317.7z M11.5,324.7h2.4
		c0.3,0,0.6,0,0.9-0.1c0.3-0.1,0.6-0.2,0.8-0.3c0.2-0.1,0.4-0.4,0.6-0.6s0.2-0.6,0.2-1c0-0.4-0.1-0.8-0.3-1
		c-0.2-0.3-0.4-0.5-0.7-0.6c-0.3-0.1-0.6-0.2-1-0.3c-0.4,0-0.7-0.1-1.1-0.1h-1.9V324.7z"/>
	<path class="st1" d="M28.5,326.3c-0.5-0.6-1.2-1-2-1c-0.3,0-0.6,0.1-0.9,0.2c-0.3,0.1-0.4,0.4-0.4,0.7c0,0.3,0.1,0.5,0.4,0.6
		c0.3,0.1,0.7,0.2,1.1,0.4c0.4,0.1,0.9,0.2,1.4,0.3c0.5,0.1,1,0.3,1.4,0.5s0.8,0.6,1.1,1c0.3,0.4,0.4,1,0.4,1.7
		c0,0.7-0.2,1.3-0.5,1.8c-0.3,0.5-0.7,0.9-1.2,1.1s-1.1,0.5-1.7,0.6c-0.6,0.1-1.2,0.2-1.8,0.2c-0.8,0-1.6-0.1-2.4-0.3
		c-0.8-0.2-1.5-0.6-2.1-1.2l2.1-2.4c0.3,0.4,0.7,0.7,1.1,0.9c0.4,0.2,0.9,0.3,1.4,0.3c0.4,0,0.8-0.1,1.1-0.2
		c0.3-0.1,0.5-0.3,0.5-0.6c0-0.3-0.1-0.5-0.4-0.7c-0.3-0.1-0.7-0.3-1.1-0.4c-0.4-0.1-0.9-0.2-1.4-0.3c-0.5-0.1-1-0.3-1.4-0.5
		c-0.4-0.2-0.8-0.6-1.1-1c-0.3-0.4-0.4-1-0.4-1.7c0-0.7,0.1-1.2,0.4-1.7s0.6-0.9,1.1-1.2c0.4-0.3,1-0.5,1.5-0.7
		c0.6-0.1,1.2-0.2,1.8-0.2c0.7,0,1.5,0.1,2.3,0.3c0.8,0.2,1.4,0.6,1.9,1.2L28.5,326.3z"/>
	<path class="st1" d="M32.7,319.3c0-0.6,0.2-1,0.6-1.4c0.4-0.4,0.9-0.6,1.4-0.6c0.6,0,1,0.2,1.4,0.6c0.4,0.4,0.6,0.9,0.6,1.4
		s-0.2,1-0.6,1.4c-0.4,0.4-0.9,0.6-1.4,0.6c-0.6,0-1-0.2-1.4-0.6C32.9,320.4,32.7,319.9,32.7,319.3z M33,322.9h3.5v11.3H33V322.9z"
		/>
	<path class="st1" d="M46.7,326.6c-0.2-0.2-0.4-0.5-0.7-0.6c-0.3-0.2-0.6-0.2-1-0.2c-0.9,0-1.6,0.3-2.1,0.8
		c-0.5,0.5-0.7,1.2-0.7,2.1s0.2,1.5,0.7,2.1c0.5,0.5,1.2,0.8,2.1,0.8c0.4,0,0.7-0.1,1-0.3s0.5-0.4,0.7-0.6L49,333
		c-0.5,0.6-1.2,1-1.9,1.2c-0.7,0.2-1.4,0.3-2.1,0.3c-0.9,0-1.7-0.1-2.5-0.4c-0.8-0.3-1.4-0.7-2-1.2s-1-1.1-1.3-1.9
		c-0.3-0.7-0.5-1.5-0.5-2.5c0-0.9,0.2-1.7,0.5-2.5c0.3-0.7,0.8-1.4,1.3-1.9c0.6-0.5,1.2-0.9,2-1.2s1.6-0.4,2.5-0.4
		c0.7,0,1.4,0.1,2.1,0.3c0.7,0.2,1.4,0.6,1.9,1.2L46.7,326.6z"/>
	<path class="st1" d="M49.8,328.6c0-0.9,0.2-1.7,0.5-2.5c0.3-0.7,0.8-1.4,1.3-1.9c0.6-0.5,1.2-0.9,2-1.2s1.6-0.4,2.5-0.4
		s1.7,0.1,2.5,0.4c0.8,0.3,1.4,0.7,2,1.2c0.6,0.5,1,1.1,1.3,1.9c0.3,0.7,0.5,1.5,0.5,2.5c0,0.9-0.2,1.7-0.5,2.5
		c-0.3,0.7-0.8,1.4-1.3,1.9c-0.6,0.5-1.2,0.9-2,1.2c-0.8,0.3-1.6,0.4-2.5,0.4s-1.7-0.1-2.5-0.4c-0.8-0.3-1.4-0.7-2-1.2
		c-0.6-0.5-1-1.1-1.3-1.9C50,330.3,49.8,329.5,49.8,328.6z M53.3,328.6c0,0.9,0.2,1.5,0.7,2.1s1.2,0.8,2.1,0.8
		c0.9,0,1.6-0.3,2.1-0.8c0.5-0.5,0.7-1.2,0.7-2.1s-0.2-1.5-0.7-2.1c-0.5-0.5-1.2-0.8-2.1-0.8c-0.9,0-1.6,0.3-2.1,0.8
		S53.3,327.7,53.3,328.6z M56.2,317.7h4.8l-4,3.4h-3.1L56.2,317.7z"/>
	<path class="st1" d="M64.5,316.6H68v17.7h-3.5V316.6z"/>
	<path class="st1" d="M70.1,328.6c0-0.9,0.2-1.7,0.5-2.5c0.3-0.7,0.8-1.4,1.3-1.9c0.6-0.5,1.2-0.9,2-1.2s1.6-0.4,2.5-0.4
		s1.7,0.1,2.5,0.4c0.8,0.3,1.4,0.7,2,1.2c0.6,0.5,1,1.1,1.3,1.9c0.3,0.7,0.5,1.5,0.5,2.5c0,0.9-0.2,1.7-0.5,2.5
		c-0.3,0.7-0.8,1.4-1.3,1.9c-0.6,0.5-1.2,0.9-2,1.2c-0.8,0.3-1.6,0.4-2.5,0.4s-1.7-0.1-2.5-0.4c-0.8-0.3-1.4-0.7-2-1.2
		c-0.6-0.5-1-1.1-1.3-1.9C70.3,330.3,70.1,329.5,70.1,328.6z M73.7,328.6c0,0.9,0.2,1.5,0.7,2.1s1.2,0.8,2.1,0.8
		c0.9,0,1.6-0.3,2.1-0.8c0.5-0.5,0.7-1.2,0.7-2.1s-0.2-1.5-0.7-2.1c-0.5-0.5-1.2-0.8-2.1-0.8c-0.9,0-1.6,0.3-2.1,0.8
		S73.7,327.7,73.7,328.6z"/>
	<path class="st1" d="M96.7,333.3c0,2.1-0.5,3.8-1.6,4.9c-1.1,1.1-2.7,1.7-4.9,1.7c-1,0-2-0.1-3-0.3c-1-0.2-1.9-0.7-2.7-1.3l1.9-2.9
		c0.5,0.5,1.1,0.8,1.7,1.1c0.6,0.3,1.3,0.4,2,0.4c1.1,0,1.9-0.3,2.4-0.8c0.5-0.5,0.8-1.2,0.8-2v-1.1h0c-0.4,0.5-0.9,0.9-1.5,1.2
		c-0.6,0.2-1.2,0.3-1.7,0.3c-0.8,0-1.6-0.1-2.3-0.4s-1.3-0.7-1.8-1.2s-0.9-1.1-1.1-1.9c-0.3-0.7-0.4-1.5-0.4-2.4
		c0-0.7,0.1-1.5,0.4-2.2c0.2-0.7,0.6-1.3,1-1.9s1-1,1.6-1.3c0.6-0.3,1.4-0.5,2.2-0.5c0.5,0,1,0.1,1.4,0.2c0.4,0.1,0.8,0.2,1.1,0.4
		c0.3,0.2,0.6,0.4,0.8,0.6c0.2,0.2,0.4,0.4,0.6,0.6h0v-1.5h3.2V333.3z M87.9,328.5c0,0.4,0.1,0.7,0.2,1.1s0.3,0.6,0.6,0.9
		s0.6,0.5,0.9,0.6c0.3,0.2,0.7,0.2,1.1,0.2c0.4,0,0.8-0.1,1.1-0.2c0.3-0.2,0.6-0.4,0.9-0.6s0.5-0.6,0.6-0.9c0.1-0.3,0.2-0.7,0.2-1.1
		s-0.1-0.7-0.2-1.1c-0.1-0.3-0.3-0.6-0.6-0.9s-0.6-0.5-0.9-0.6c-0.3-0.2-0.7-0.2-1.1-0.2c-0.4,0-0.8,0.1-1.1,0.2
		c-0.3,0.2-0.6,0.4-0.9,0.6s-0.5,0.6-0.6,0.9C88,327.8,87.9,328.2,87.9,328.5z"/>
	<path class="st1" d="M106.6,332.8L106.6,332.8c-0.4,0.6-1,1-1.6,1.3c-0.6,0.3-1.3,0.4-2,0.4c-0.5,0-1-0.1-1.5-0.2
		c-0.5-0.1-0.9-0.4-1.3-0.7c-0.4-0.3-0.7-0.7-0.9-1.1c-0.2-0.4-0.3-0.9-0.3-1.5c0-0.7,0.1-1.2,0.4-1.7c0.2-0.5,0.6-0.8,1-1.1
		s0.9-0.5,1.4-0.7c0.5-0.2,1.1-0.3,1.6-0.4c0.6-0.1,1.1-0.1,1.7-0.1c0.6,0,1.1,0,1.6,0c0-0.6-0.2-1.1-0.7-1.5
		c-0.4-0.4-1-0.5-1.6-0.5c-0.6,0-1.1,0.1-1.6,0.4c-0.5,0.2-0.9,0.6-1.3,1l-1.9-1.9c0.7-0.6,1.4-1.1,2.3-1.4c0.9-0.3,1.8-0.5,2.7-0.5
		c1,0,1.9,0.1,2.5,0.4s1.2,0.6,1.6,1.1s0.7,1.1,0.8,1.8c0.2,0.7,0.2,1.6,0.2,2.5v5.8h-3.2V332.8z M105.8,329.3c-0.3,0-0.6,0-1,0
		s-0.8,0.1-1.1,0.2c-0.4,0.1-0.7,0.3-0.9,0.5c-0.3,0.2-0.4,0.5-0.4,0.9c0,0.4,0.2,0.7,0.5,0.9c0.4,0.2,0.7,0.3,1.1,0.3
		c0.3,0,0.7,0,1-0.1c0.3-0.1,0.6-0.2,0.9-0.4c0.2-0.2,0.4-0.4,0.6-0.7c0.1-0.3,0.2-0.6,0.2-0.9v-0.7H105.8z"/>
	<path class="st1" d="M130.2,322c-0.4-0.4-0.8-0.8-1.3-1s-1.1-0.4-1.8-0.4s-1.3,0.1-1.9,0.4c-0.6,0.3-1.1,0.6-1.5,1.1
		c-0.4,0.5-0.8,1-1,1.7c-0.2,0.7-0.4,1.4-0.4,2.1c0,0.8,0.1,1.5,0.4,2.1c0.2,0.6,0.6,1.2,1,1.7c0.4,0.5,0.9,0.8,1.5,1.1
		c0.6,0.3,1.2,0.4,1.8,0.4c0.7,0,1.4-0.2,2-0.5c0.6-0.3,1.1-0.7,1.4-1.3l3,2.3c-0.7,1-1.6,1.7-2.7,2.2s-2.2,0.7-3.3,0.7
		c-1.3,0-2.5-0.2-3.6-0.6c-1.1-0.4-2-1-2.8-1.7c-0.8-0.8-1.4-1.7-1.9-2.7c-0.4-1.1-0.7-2.3-0.7-3.6s0.2-2.5,0.7-3.6
		c0.4-1.1,1.1-2,1.9-2.7c0.8-0.8,1.7-1.3,2.8-1.7c1.1-0.4,2.3-0.6,3.6-0.6c0.5,0,1,0,1.5,0.1c0.5,0.1,1,0.2,1.5,0.4s1,0.4,1.4,0.7
		c0.5,0.3,0.9,0.7,1.2,1.1L130.2,322z"/>
	<path class="st1" d="M134.5,328.6c0-0.9,0.2-1.7,0.5-2.5c0.3-0.7,0.8-1.4,1.3-1.9c0.6-0.5,1.2-0.9,2-1.2s1.6-0.4,2.5-0.4
		s1.7,0.1,2.5,0.4c0.8,0.3,1.4,0.7,2,1.2c0.6,0.5,1,1.1,1.3,1.9c0.3,0.7,0.5,1.5,0.5,2.5c0,0.9-0.2,1.7-0.5,2.5
		c-0.3,0.7-0.8,1.4-1.3,1.9c-0.6,0.5-1.2,0.9-2,1.2c-0.8,0.3-1.6,0.4-2.5,0.4s-1.7-0.1-2.5-0.4c-0.8-0.3-1.4-0.7-2-1.2
		c-0.6-0.5-1-1.1-1.3-1.9C134.7,330.3,134.5,329.5,134.5,328.6z M138,328.6c0,0.9,0.2,1.5,0.7,2.1s1.2,0.8,2.1,0.8
		c0.9,0,1.6-0.3,2.1-0.8c0.5-0.5,0.7-1.2,0.7-2.1s-0.2-1.5-0.7-2.1c-0.5-0.5-1.2-0.8-2.1-0.8c-0.9,0-1.6,0.3-2.1,0.8
		S138,327.7,138,328.6z"/>
	<path class="st1" d="M161.1,333.3c0,2.1-0.5,3.8-1.6,4.9c-1.1,1.1-2.7,1.7-4.9,1.7c-1,0-2-0.1-3-0.3c-1-0.2-1.9-0.7-2.7-1.3
		l1.9-2.9c0.5,0.5,1.1,0.8,1.7,1.1c0.6,0.3,1.3,0.4,2,0.4c1.1,0,1.9-0.3,2.4-0.8c0.5-0.5,0.8-1.2,0.8-2v-1.1h0
		c-0.4,0.5-0.9,0.9-1.5,1.2c-0.6,0.2-1.2,0.3-1.7,0.3c-0.8,0-1.6-0.1-2.3-0.4s-1.3-0.7-1.8-1.2s-0.9-1.1-1.1-1.9
		c-0.3-0.7-0.4-1.5-0.4-2.4c0-0.7,0.1-1.5,0.4-2.2c0.2-0.7,0.6-1.3,1-1.9s1-1,1.6-1.3c0.6-0.3,1.4-0.5,2.2-0.5c0.5,0,1,0.1,1.4,0.2
		c0.4,0.1,0.8,0.2,1.1,0.4c0.3,0.2,0.6,0.4,0.8,0.6c0.2,0.2,0.4,0.4,0.6,0.6h0v-1.5h3.2V333.3z M152.3,328.5c0,0.4,0.1,0.7,0.2,1.1
		s0.3,0.6,0.6,0.9s0.6,0.5,0.9,0.6c0.3,0.2,0.7,0.2,1.1,0.2c0.4,0,0.8-0.1,1.1-0.2c0.3-0.2,0.6-0.4,0.9-0.6s0.5-0.6,0.6-0.9
		c0.1-0.3,0.2-0.7,0.2-1.1s-0.1-0.7-0.2-1.1c-0.1-0.3-0.3-0.6-0.6-0.9s-0.6-0.5-0.9-0.6c-0.3-0.2-0.7-0.2-1.1-0.2
		c-0.4,0-0.8,0.1-1.1,0.2c-0.3,0.2-0.6,0.4-0.9,0.6s-0.5,0.6-0.6,0.9C152.4,327.8,152.3,328.2,152.3,328.5z"/>
	<path class="st1" d="M163.9,322.9h3.4v1.5h0c0.1-0.2,0.3-0.4,0.5-0.7c0.2-0.2,0.4-0.4,0.7-0.6c0.3-0.2,0.6-0.3,1-0.4
		c0.4-0.1,0.7-0.2,1.2-0.2c0.9,0,1.6,0.1,2.1,0.4s1,0.7,1.3,1.1c0.3,0.5,0.5,1.1,0.6,1.7c0.1,0.7,0.2,1.4,0.2,2.1v6.3h-3.5v-5.6
		c0-0.3,0-0.7,0-1c0-0.3-0.1-0.7-0.2-1c-0.1-0.3-0.3-0.5-0.5-0.7c-0.2-0.2-0.6-0.3-1-0.3s-0.8,0.1-1.1,0.2c-0.3,0.2-0.5,0.4-0.6,0.7
		c-0.1,0.3-0.2,0.6-0.3,0.9s-0.1,0.7-0.1,1.1v5.7h-3.5V322.9z"/>
	<path class="st1" d="M177.1,319.3c0-0.6,0.2-1,0.6-1.4c0.4-0.4,0.9-0.6,1.4-0.6c0.6,0,1,0.2,1.4,0.6c0.4,0.4,0.6,0.9,0.6,1.4
		s-0.2,1-0.6,1.4c-0.4,0.4-0.9,0.6-1.4,0.6c-0.6,0-1-0.2-1.4-0.6C177.3,320.4,177.1,319.9,177.1,319.3z M177.4,322.9h3.5v11.3h-3.5
		V322.9z"/>
	<path class="st1" d="M191.1,325.7H188v3.8c0,0.3,0,0.6,0,0.9s0.1,0.5,0.2,0.7c0.1,0.2,0.3,0.3,0.5,0.4s0.5,0.2,0.9,0.2
		c0.2,0,0.4,0,0.7-0.1c0.3,0,0.5-0.1,0.7-0.3v2.9c-0.4,0.1-0.8,0.2-1.2,0.3s-0.8,0.1-1.2,0.1c-0.6,0-1.1-0.1-1.6-0.2
		c-0.5-0.1-0.9-0.3-1.3-0.6s-0.7-0.6-0.9-1.1c-0.2-0.4-0.3-1-0.3-1.6v-5.4h-2.2v-2.8h2.2v-3.4h3.5v3.4h3.1V325.7z"/>
	<path class="st1" d="M192.7,319.3c0-0.6,0.2-1,0.6-1.4c0.4-0.4,0.9-0.6,1.4-0.6c0.6,0,1,0.2,1.4,0.6c0.4,0.4,0.6,0.9,0.6,1.4
		s-0.2,1-0.6,1.4c-0.4,0.4-0.9,0.6-1.4,0.6c-0.6,0-1-0.2-1.4-0.6C192.9,320.4,192.7,319.9,192.7,319.3z M192.9,322.9h3.5v11.3h-3.5
		V322.9z"/>
	<path class="st1" d="M197.8,322.9h3.8l2.9,7.7h0l2.7-7.7h3.5l-4.5,11.3h-3.7L197.8,322.9z"/>
	<path class="st1" d="M211.5,328.6c0-0.9,0.2-1.7,0.5-2.5c0.3-0.7,0.8-1.4,1.3-1.9c0.6-0.5,1.2-0.9,2-1.2s1.6-0.4,2.5-0.4
		c0.9,0,1.7,0.1,2.5,0.4s1.4,0.7,2,1.2c0.6,0.5,1,1.1,1.3,1.9c0.3,0.7,0.5,1.5,0.5,2.5c0,0.9-0.2,1.7-0.5,2.5
		c-0.3,0.7-0.8,1.4-1.3,1.9s-1.2,0.9-2,1.2c-0.8,0.3-1.6,0.4-2.5,0.4c-0.9,0-1.7-0.1-2.5-0.4c-0.8-0.3-1.4-0.7-2-1.2
		c-0.6-0.5-1-1.1-1.3-1.9C211.7,330.3,211.5,329.5,211.5,328.6z M215,328.6c0,0.9,0.2,1.5,0.7,2.1s1.2,0.8,2.1,0.8
		c0.9,0,1.6-0.3,2.1-0.8c0.5-0.5,0.7-1.2,0.7-2.1s-0.2-1.5-0.7-2.1c-0.5-0.5-1.2-0.8-2.1-0.8c-0.9,0-1.6,0.3-2.1,0.8
		S215,327.7,215,328.6z"/>
	<path class="st1" d="M244.4,322c-0.4-0.4-0.8-0.8-1.3-1s-1.1-0.4-1.8-0.4c-0.7,0-1.3,0.1-1.9,0.4c-0.6,0.3-1.1,0.6-1.5,1.1
		c-0.4,0.5-0.8,1-1,1.7c-0.2,0.7-0.4,1.4-0.4,2.1c0,0.8,0.1,1.5,0.4,2.1c0.2,0.6,0.6,1.2,1,1.7c0.4,0.5,0.9,0.8,1.5,1.1
		c0.6,0.3,1.2,0.4,1.8,0.4c0.7,0,1.4-0.2,2-0.5s1.1-0.7,1.4-1.3l3,2.3c-0.7,1-1.6,1.7-2.7,2.2s-2.2,0.7-3.3,0.7
		c-1.3,0-2.5-0.2-3.6-0.6c-1.1-0.4-2-1-2.8-1.7c-0.8-0.8-1.4-1.7-1.9-2.7c-0.4-1.1-0.7-2.3-0.7-3.6s0.2-2.5,0.7-3.6
		c0.4-1.1,1.1-2,1.9-2.7c0.8-0.8,1.7-1.3,2.8-1.7c1.1-0.4,2.3-0.6,3.6-0.6c0.5,0,1,0,1.5,0.1c0.5,0.1,1,0.2,1.5,0.4s1,0.4,1.4,0.7
		s0.9,0.7,1.2,1.1L244.4,322z"/>
	<path class="st1" d="M248.7,328.6c0-0.9,0.2-1.7,0.5-2.5c0.3-0.7,0.8-1.4,1.3-1.9c0.6-0.5,1.2-0.9,2-1.2s1.6-0.4,2.5-0.4
		c0.9,0,1.7,0.1,2.5,0.4s1.4,0.7,2,1.2c0.6,0.5,1,1.1,1.3,1.9c0.3,0.7,0.5,1.5,0.5,2.5c0,0.9-0.2,1.7-0.5,2.5
		c-0.3,0.7-0.8,1.4-1.3,1.9s-1.2,0.9-2,1.2c-0.8,0.3-1.6,0.4-2.5,0.4c-0.9,0-1.7-0.1-2.5-0.4c-0.8-0.3-1.4-0.7-2-1.2
		c-0.6-0.5-1-1.1-1.3-1.9C248.8,330.3,248.7,329.5,248.7,328.6z M252.2,328.6c0,0.9,0.2,1.5,0.7,2.1s1.2,0.8,2.1,0.8
		c0.9,0,1.6-0.3,2.1-0.8c0.5-0.5,0.7-1.2,0.7-2.1s-0.2-1.5-0.7-2.1c-0.5-0.5-1.2-0.8-2.1-0.8c-0.9,0-1.6,0.3-2.1,0.8
		S252.2,327.7,252.2,328.6z"/>
	<path class="st1" d="M263.3,322.9h3.4v1.5h0c0.1-0.2,0.3-0.4,0.5-0.7c0.2-0.2,0.4-0.4,0.7-0.6c0.3-0.2,0.6-0.3,1-0.4
		c0.4-0.1,0.7-0.2,1.2-0.2c0.9,0,1.6,0.1,2.1,0.4s1,0.7,1.3,1.1s0.5,1.1,0.6,1.7c0.1,0.7,0.2,1.4,0.2,2.1v6.3h-3.5v-5.6
		c0-0.3,0-0.7,0-1c0-0.3-0.1-0.7-0.2-1c-0.1-0.3-0.3-0.5-0.5-0.7c-0.2-0.2-0.6-0.3-1-0.3c-0.5,0-0.8,0.1-1.1,0.2
		c-0.3,0.2-0.5,0.4-0.6,0.7c-0.1,0.3-0.2,0.6-0.3,0.9s-0.1,0.7-0.1,1.1v5.7h-3.5V322.9z"/>
	<path class="st1" d="M288.7,334.3h-3.2v-1.5h0c-0.1,0.2-0.3,0.4-0.5,0.6c-0.2,0.2-0.5,0.4-0.8,0.6c-0.3,0.2-0.6,0.3-1,0.4
		c-0.4,0.1-0.7,0.2-1.1,0.2c-0.8,0-1.6-0.1-2.3-0.4c-0.7-0.3-1.3-0.7-1.8-1.2s-0.9-1.1-1.1-1.9c-0.3-0.7-0.4-1.5-0.4-2.4
		c0-0.8,0.1-1.6,0.4-2.3s0.6-1.4,1-1.9c0.4-0.6,1-1,1.6-1.3c0.6-0.3,1.4-0.5,2.2-0.5c0.7,0,1.4,0.1,2,0.3c0.6,0.2,1.1,0.6,1.6,1.2h0
		v-7.5h3.5V334.3z M285.4,328.6c0-0.9-0.2-1.5-0.7-2.1c-0.5-0.5-1.2-0.8-2.1-0.8c-0.9,0-1.6,0.3-2.1,0.8s-0.7,1.2-0.7,2.1
		s0.2,1.5,0.7,2.1s1.2,0.8,2.1,0.8c0.9,0,1.6-0.3,2.1-0.8C285.2,330.1,285.4,329.5,285.4,328.6z"/>
	<path class="st1" d="M302.4,334.3H299v-1.5h0c-0.1,0.2-0.3,0.4-0.5,0.7c-0.2,0.2-0.4,0.4-0.7,0.6c-0.3,0.2-0.6,0.3-1,0.4
		c-0.4,0.1-0.7,0.2-1.2,0.2c-0.9,0-1.6-0.1-2.2-0.4c-0.6-0.3-1-0.6-1.3-1.1c-0.3-0.5-0.5-1.1-0.6-1.7c-0.1-0.7-0.2-1.4-0.2-2.1v-6.3
		h3.5v5.6c0,0.3,0,0.7,0,1c0,0.4,0.1,0.7,0.2,1c0.1,0.3,0.3,0.5,0.5,0.7s0.6,0.3,1,0.3s0.8-0.1,1.1-0.2c0.3-0.2,0.5-0.4,0.6-0.7
		c0.1-0.3,0.2-0.6,0.3-0.9s0.1-0.7,0.1-1.1v-5.7h3.5V334.3z"/>
	<path class="st1" d="M312.5,326.6c-0.2-0.2-0.4-0.5-0.7-0.6c-0.3-0.2-0.6-0.2-1-0.2c-0.9,0-1.6,0.3-2.1,0.8s-0.7,1.2-0.7,2.1
		s0.2,1.5,0.7,2.1s1.2,0.8,2.1,0.8c0.4,0,0.7-0.1,1-0.3s0.5-0.4,0.7-0.6l2.3,2.4c-0.5,0.6-1.2,1-1.9,1.2c-0.7,0.2-1.4,0.3-2.1,0.3
		c-0.9,0-1.7-0.1-2.5-0.4c-0.8-0.3-1.4-0.7-2-1.2s-1-1.1-1.3-1.9c-0.3-0.7-0.5-1.5-0.5-2.5c0-0.9,0.2-1.7,0.5-2.5
		c0.3-0.7,0.8-1.4,1.3-1.9c0.6-0.5,1.2-0.9,2-1.2s1.6-0.4,2.5-0.4c0.7,0,1.4,0.1,2.1,0.3c0.7,0.2,1.4,0.6,1.9,1.2L312.5,326.6z"/>
	<path class="st1" d="M323.8,325.7h-3.1v3.8c0,0.3,0,0.6,0,0.9s0.1,0.5,0.2,0.7c0.1,0.2,0.3,0.3,0.5,0.4c0.2,0.1,0.5,0.2,0.9,0.2
		c0.2,0,0.4,0,0.7-0.1c0.3,0,0.5-0.1,0.7-0.3v2.9c-0.4,0.1-0.8,0.2-1.2,0.3c-0.4,0-0.8,0.1-1.2,0.1c-0.6,0-1.1-0.1-1.6-0.2
		c-0.5-0.1-0.9-0.3-1.3-0.6c-0.4-0.3-0.7-0.6-0.9-1.1c-0.2-0.4-0.3-1-0.3-1.6v-5.4H315v-2.8h2.2v-3.4h3.5v3.4h3.1V325.7z"/>
	<path class="st1" d="M336.5,334.3h-3.4v-1.5h0c-0.1,0.2-0.3,0.4-0.5,0.7c-0.2,0.2-0.4,0.4-0.7,0.6c-0.3,0.2-0.6,0.3-1,0.4
		c-0.4,0.1-0.7,0.2-1.2,0.2c-0.9,0-1.6-0.1-2.2-0.4c-0.6-0.3-1-0.6-1.3-1.1c-0.3-0.5-0.5-1.1-0.6-1.7c-0.1-0.7-0.2-1.4-0.2-2.1v-6.3
		h3.5v5.6c0,0.3,0,0.7,0,1c0,0.4,0.1,0.7,0.2,1c0.1,0.3,0.3,0.5,0.5,0.7c0.2,0.2,0.6,0.3,1,0.3c0.5,0,0.8-0.1,1.1-0.2
		c0.3-0.2,0.5-0.4,0.6-0.7c0.1-0.3,0.2-0.6,0.3-0.9s0.1-0.7,0.1-1.1v-5.7h3.5V334.3z"/>
	<path class="st1" d="M346.1,332.8L346.1,332.8c-0.4,0.6-1,1-1.6,1.3c-0.6,0.3-1.3,0.4-2,0.4c-0.5,0-1-0.1-1.5-0.2
		c-0.5-0.1-0.9-0.4-1.3-0.7c-0.4-0.3-0.7-0.7-0.9-1.1c-0.2-0.4-0.3-0.9-0.3-1.5c0-0.7,0.1-1.2,0.4-1.7s0.6-0.8,1-1.1
		s0.9-0.5,1.4-0.7c0.5-0.2,1.1-0.3,1.6-0.4c0.6-0.1,1.1-0.1,1.7-0.1s1.1,0,1.6,0c0-0.6-0.2-1.1-0.7-1.5c-0.4-0.4-1-0.5-1.6-0.5
		c-0.6,0-1.1,0.1-1.6,0.4c-0.5,0.2-0.9,0.6-1.3,1l-1.9-1.9c0.7-0.6,1.4-1.1,2.3-1.4c0.9-0.3,1.8-0.5,2.7-0.5c1,0,1.9,0.1,2.5,0.4
		c0.7,0.3,1.2,0.6,1.6,1.1c0.4,0.5,0.7,1.1,0.8,1.8c0.2,0.7,0.2,1.6,0.2,2.5v5.8h-3.2V332.8z M345.3,329.3c-0.3,0-0.6,0-1,0
		c-0.4,0-0.8,0.1-1.1,0.2c-0.4,0.1-0.7,0.3-0.9,0.5c-0.3,0.2-0.4,0.5-0.4,0.9c0,0.4,0.2,0.7,0.5,0.9c0.4,0.2,0.7,0.3,1.1,0.3
		c0.3,0,0.7,0,1-0.1c0.3-0.1,0.6-0.2,0.9-0.4c0.2-0.2,0.4-0.4,0.6-0.7c0.1-0.3,0.2-0.6,0.2-0.9v-0.7H345.3z"/>
	<path class="st1" d="M351.6,316.6h3.5v17.7h-3.5V316.6z"/>
</g>
<g>
	<defs>
		<path id="SVGID_1_" d="M215.6,236.4c-0.6-1.5-1.7-2.7-3.1-3.4l8.2-31.2c0.7,0,1.4-0.2,2-0.4l13.6,17c-2.1,2.4-2.1,6,0,8.4
			c-6,7.5-12.9,9.7-19.1,9.7C216.8,236.4,216.2,236.4,215.6,236.4 M191.7,223.3v-14.7c2.4-0.7,4.2-2.7,4.6-5.2l19.1-4.5
			c0.5,0.8,1.2,1.5,2.1,2l-8.2,31.3c-1.5,0.1-2.9,0.6-4,1.6C197.3,230.5,191.8,225,191.7,223.3 M225.3,199.3c0.7-1,1.1-2.2,1.1-3.4
			c0-0.4,0-0.8-0.1-1.2l17.7-13.6c0.6,0.7,1.4,1.3,2.3,1.7l-5.1,33.3c-0.7,0-1.4,0.2-2,0.4L225.3,199.3z M244.3,216.8l5.1-33.4
			c2.1-0.1,4.1-1.1,5.4-2.7l13.7,8.7c-0.2,0.6-0.3,1.2-0.3,1.8c0,2.7,1.6,5.1,4.1,6.1c-2.1,6.8-7.3,12.6-15.3,17.2
			c-3.3,1.9-6.7,3.4-10.2,4.6C246.2,218.1,245.3,217.4,244.3,216.8 M256.3,177.6c0.1-0.5,0.1-0.9,0.1-1.4c0-0.8-0.2-1.6-0.4-2.4
			l12.4-8.1c2.1,2.7,5.9,3.4,8.8,1.5c1,1.9,1.7,3.9,1.9,6.1c0.5,4.1-0.1,8.2-1.6,12c-2.4-1.1-5.3-0.6-7.2,1.3L256.3,177.6z
			 M191.6,196.1v-37.5c0.1,0,0.3-0.1,0.4-0.1l24.4,32.9c-1.2,1.1-1.9,2.7-1.9,4.3l-18.5,4.3C195.3,198.2,193.7,196.7,191.6,196.1
			 M194.8,156.6c0.3-0.3,0.5-0.6,0.7-0.9l46.7,19.6c-0.1,0.3-0.1,0.6-0.1,0.8c0,0.6,0.1,1.3,0.3,1.9l-17.7,13.6
			c-1.1-1.1-2.7-1.8-4.2-1.8c-0.3,0-0.7,0-1,0.1L194.8,156.6z M197.2,152.8l19.1-1.5c0.7,3.4,4,5.5,7.3,4.8c0.6-0.1,1.3-0.4,1.8-0.7
			l15.9,16.1L197.2,152.8z M227.8,153c0.5-0.9,0.8-1.9,0.8-3c0-0.9-0.2-1.8-0.6-2.6l29-21.4c1.2,1.3,3,2.1,4.8,2.1h0.2l8.4,28.1
			c-2,1.2-3.2,3.3-3.2,5.6c0,0.3,0,0.5,0.1,0.8l-13,8.4c-2.5-2.4-6.4-2.7-9.1-0.6L227.8,153z M191.7,146.1v-37.4
			c0.2,0,0.3-0.1,0.5-0.2l25.7,37.1c-0.6,0.6-1.1,1.4-1.4,2.3l-20.7,1.7C195,147.9,193.5,146.7,191.7,146.1 M194.9,106.6
			c0.2-0.2,0.4-0.5,0.6-0.8l59.9,14.9c-0.1,0.8-0.1,1.5,0.1,2.3l-29.6,21.8c-1-0.7-2.2-1-3.5-1c-0.5,0-1.1,0.1-1.6,0.2L194.9,106.6z
			 M196.4,102.6c0-0.1,0-0.2,0-0.2c0-0.5-0.1-1-0.2-1.4l21.3-12c1.9,1.6,4.6,1.9,6.8,0.6l31,27.7L196.4,102.6z M265.2,127.1
			c3.1-1.9,4-5.9,2.2-8.9c-0.7-1.1-1.6-2-2.8-2.5l7.9-35.2c0.8-0.1,1.6-0.3,2.4-0.6c11.4,11.7,13.1,27.9,12.4,40
			c-0.9,14.9-6,29-10.6,36.1c-0.9-0.5-1.9-0.7-2.9-0.7h-0.1L265.2,127.1z M226.6,87.1c0.8-1.6,0.8-3.4,0.1-5l16.6-16.3
			c1.4,1,3,1.5,4.7,1.5c0.2,0,0.4,0,0.5,0l10.5,48.3l-0.2,0.1L226.6,87.1z M251.7,66.4c0.9-0.5,1.8-1.2,2.4-2l11.5,7.9
			c-0.1,0.5-0.2,1.1-0.2,1.6c0,2.5,1.4,4.8,3.7,5.9l-7.4,33.1L251.7,66.4z M191.7,96.1V58.7c0.4-0.1,0.8-0.3,1.1-0.4l23.3,23.6
			c-0.5,0.8-0.7,1.8-0.7,2.7c0,0.6,0.1,1.1,0.3,1.6l-21,11.8C193.9,97.1,192.8,96.5,191.7,96.1 M195.3,56.1c0.2-0.3,0.4-0.7,0.6-1.1
			l43.9,4.8c0.1,1.3,0.5,2.5,1.1,3.6l-16.5,16.2c-0.9-0.6-2-0.9-3.1-0.9c-1,0-2,0.3-2.8,0.8L195.3,56.1z M215.5,43.7l23.6,12.6
			l-42.7-4.7c0-0.5-0.1-0.9-0.3-1.3l10.3-6.1C209,46.6,213.1,46.4,215.5,43.7C215.5,43.8,215.5,43.7,215.5,43.7 M242.8,35.1
			c21.3,7.3,25.7,23.8,26.4,32.8c-0.7,0.3-1.4,0.8-2,1.4l-11.6-7.9c1.3-4.2-1-8.7-5.3-10c-0.8-0.3-1.7-0.4-2.5-0.4
			c-2.4,0-4.6,1.1-6.2,2.9L217,40.8c0-0.3,0.1-0.5,0.1-0.8l13.8-4c1.6,3.2,5.6,4.4,8.7,2.8C241,38,242.1,36.7,242.8,35.1
			 M191.6,46.1V23.5c7.4-4.3,16.2-5.4,24.4-3.2c5.9,1.4,11.3,4.3,15.8,8.3c-1.1,1.1-1.7,2.6-1.7,4.2l-13.6,3.9
			c-1.4-3.3-5.2-4.8-8.5-3.3c-3.1,1.4-4.7,4.9-3.5,8.1l-10.4,6.2C193.4,46.9,192.5,46.5,191.6,46.1 M188.9,21l-0.8,0.5v24.7
			c-3.5,1-5.5,4.5-4.5,8c0.6,2.2,2.3,3.9,4.5,4.5v37.5c-3.5,1-5.5,4.5-4.5,8c0.6,2.2,2.3,3.9,4.5,4.5v37.4c-3.5,1-5.5,4.6-4.5,8
			c0.6,2.2,2.3,3.9,4.5,4.5v37.4c-3.5,1-5.5,4.5-4.5,8c0.6,2.2,2.3,3.9,4.5,4.5v14.7c0,3.6,6.8,9.9,15.2,13.6
			c-0.9,3.5,1.3,7,4.8,7.9s7-1.3,7.9-4.8l0,0c0.4,0,0.8,0,1.3,0c6.8,0,15.1-2.4,22.1-11.2c3.4,1.2,7.1-0.6,8.2-4
			c0.2-0.7,0.4-1.4,0.4-2.2l0,0c3.8-1.3,7.4-2.9,10.9-4.9c9.1-5.2,15-12.1,17.3-20.1c3.5-0.7,5.9-4.1,5.2-7.6
			c-0.2-0.8-0.5-1.7-1-2.4c2.1-4.6,3-9.7,2.4-14.7c-0.3-3-1.3-6-3-8.5c0.8-1.9,0.7-4.2-0.4-5.9c5.3-7.9,10.6-23.1,11.5-38.3
			c0.8-12.8-1.1-30-13.3-42.6c2-3,1.1-7-1.9-9c-0.8-0.6-1.8-0.9-2.8-1c-0.9-10.2-5.9-28.3-29.7-36c-0.7-3-3.3-5.1-6.4-5.1
			c-0.6,0-1.1,0.1-1.6,0.2c-5.1-4.8-11.3-8.2-18.1-9.8c-3.1-0.8-6.2-1.2-9.4-1.2C200.9,15.6,194.5,17.5,188.9,21"/>
	</defs>
	<clipPath id="SVGID_2_">
		<use xlink:href="#SVGID_1_"  style="overflow:visible;"/>
	</clipPath>
	<g class="st2">
		
			<linearGradient id="SVGID_3_" gradientUnits="userSpaceOnUse" x1="-682.454" y1="15.5499" x2="-681.834" y2="15.5499" gradientTransform="matrix(0 -410.25 410.25 0 -6141.9375 -279720.375)">
			<stop  offset="0" style="stop-color:#2E3192"/>
			<stop  offset="0.99" style="stop-color:#EF4136"/>
			<stop  offset="1" style="stop-color:#EF4136"/>
		</linearGradient>
		<rect x="183.3" y="15.6" class="st3" width="108.2" height="229.7"/>
	</g>
</g>
<g>
	<defs>
		<path id="SVGID_4_" d="M123.7,226.8c2.1-2.4,2.1-6,0-8.4l13.6-17c0.6,0.3,1.3,0.4,2,0.4l8.2,31.2c-1.4,0.7-2.5,1.9-3.1,3.4
			c-0.5,0-1.1,0.1-1.6,0.1C136.6,236.5,129.7,234.2,123.7,226.8 M150.7,232.3l-8.2-31.3c0.8-0.5,1.6-1.2,2.1-2l19.1,4.4
			c0.4,2.5,2.2,4.5,4.6,5.2v14.7c-0.1,1.6-5.6,7.2-13.6,10.5C153.6,232.8,152.2,232.3,150.7,232.3 M118.9,216l-5.1-33.3
			c0.9-0.4,1.6-1,2.3-1.7l17.7,13.6c-0.1,0.4-0.1,0.8-0.1,1.2c0,1.2,0.4,2.4,1.1,3.4l-13.8,17.2C120.3,216.2,119.6,216,118.9,216
			 M102.9,214.5c-8.1-4.6-13.2-10.4-15.3-17.2c2.5-1,4.1-3.4,4.2-6.1c0-0.6-0.1-1.2-0.3-1.8l13.7-8.7c1.3,1.7,3.3,2.7,5.4,2.7
			l5.1,33.4c-1,0.5-1.9,1.3-2.5,2.3C109.6,217.9,106.2,216.3,102.9,214.5 M91.6,165.7l12.4,8.1c-0.5,1.2-0.6,2.5-0.3,3.8l-13.9,8.9
			c-1.9-1.9-4.8-2.4-7.2-1.3c-1.5-3.8-2.1-7.9-1.7-12c0.2-2.1,0.9-4.2,1.9-6.1C85.7,169.1,89.5,168.4,91.6,165.7 M145.6,195.8
			c0-1.6-0.7-3.2-1.9-4.3l24.3-32.9l0.4,0.1v37.4c-2,0.6-3.6,2.1-4.3,4L145.6,195.8z M117.7,178.1c0.2-0.6,0.3-1.3,0.3-1.9
			c0-0.3,0-0.6-0.1-0.8l46.7-19.6c0.2,0.3,0.4,0.6,0.7,0.9L140.6,190c-0.3-0.1-0.7-0.1-1-0.1c-1.6,0-3.1,0.6-4.2,1.8L117.7,178.1z
			 M143.8,151.3l19.1,1.5l-44.2,18.6l15.9-16.1c0.9,0.5,2,0.8,3.1,0.8C140.7,156.2,143.2,154.1,143.8,151.3 M103.1,126l29,21.4
			c-0.4,0.8-0.6,1.7-0.6,2.6c0,1.1,0.3,2.1,0.8,3L115,170.4c-2.8-2-6.7-1.8-9.2,0.6l-12.9-8.5c0.1-0.3,0.1-0.5,0.1-0.8
			c0-2.3-1.2-4.4-3.2-5.6l8.3-28.1h0.2C100.1,128.1,101.9,127.3,103.1,126 M143.6,147.9c-0.3-0.8-0.8-1.6-1.4-2.3l25.7-37.1
			c0.1,0.1,0.3,0.1,0.5,0.2v37.5c-1.8,0.5-3.3,1.8-4.1,3.4L143.6,147.9z M104.7,123c0.2-0.7,0.2-1.5,0.1-2.3l59.9-14.9
			c0.2,0.3,0.4,0.5,0.6,0.8L139.3,144c-0.5-0.1-1.1-0.2-1.6-0.2c-1.2,0-2.4,0.3-3.5,1L104.7,123z M142.5,89l21.3,12
			c-0.1,0.5-0.2,1-0.2,1.4c0,0.1,0,0.2,0,0.2l-58.9,14.7l31-27.7C137.8,90.9,140.6,90.7,142.5,89 M72.9,119.8
			c-0.7-12.1,1-28.3,12.4-40c0.7,0.4,1.5,0.6,2.4,0.6l7.8,35.2c-3.3,1.5-4.7,5.4-3.1,8.6c0.5,1.2,1.4,2.1,2.5,2.8l-8.4,28.1h-0.1
			c-1,0-2,0.3-2.9,0.7C78.9,148.9,73.8,134.7,72.9,119.8 M116.8,65.9l16.6,16.3c-0.3,0.8-0.5,1.6-0.5,2.4c0,0.9,0.2,1.8,0.6,2.5
			l-32.1,28.7l-0.2-0.1l10.5-48.3c0.2,0,0.3,0,0.5,0C113.8,67.3,115.4,66.8,116.8,65.9 M90.9,79.8c2.3-1.1,3.7-3.4,3.7-5.9
			c0-0.5-0.1-1.1-0.2-1.6l11.5-7.9c0.7,0.8,1.5,1.5,2.5,2l-10.1,46.5L90.9,79.8z M144.3,86.2c0.2-0.5,0.2-1.1,0.3-1.6
			c0-0.9-0.2-1.9-0.7-2.7l23.3-23.6c0.4,0.2,0.7,0.3,1.1,0.4v37.4c-1.2,0.3-2.2,1-3,1.9L144.3,86.2z M119.1,63.4
			c0.7-1.1,1.1-2.3,1.1-3.6l43.9-4.8c0.2,0.4,0.4,0.8,0.6,1.1l-23.1,23.4c-1.9-1.1-4.2-1-6,0.2L119.1,63.4z M144.5,43.7
			c2.3,2.7,6.4,2.9,9.1,0.6c0,0,0.1-0.1,0.1-0.1l10.3,6.1c-0.1,0.4-0.3,0.9-0.3,1.3L121,56.4L144.5,43.7z M90.8,68
			c0.7-9.1,5.1-25.6,26.4-32.8c1.2,3.4,4.9,5.1,8.3,3.9c1.5-0.6,2.8-1.7,3.6-3.1l13.7,4c0,0.3,0,0.5,0.1,0.8L118.3,54
			c-1.5-1.8-3.8-2.9-6.2-2.9c-4.4-0.1-8.1,3.4-8.2,7.8c0,0.9,0.1,1.7,0.4,2.5l-11.6,7.9C92.2,68.8,91.5,68.3,90.8,68 M129.9,32.7
			c-0.1-1.5-0.7-3-1.7-4.2c4.5-4,9.9-6.9,15.8-8.3c8.2-2.2,17-1,24.4,3.2v22.7c-0.9,0.3-1.8,0.7-2.5,1.4l-10.4-6.2
			c1.2-3.4-0.5-7.1-3.9-8.3c-3.2-1.2-6.8,0.4-8.1,3.5L129.9,32.7z M143.1,16.8c-6.8,1.7-13,5-18.1,9.8c-0.5-0.1-1.1-0.2-1.6-0.2
			c-3.1,0-5.7,2.1-6.4,5.1c-23.8,7.7-28.8,25.8-29.7,36c-3.6,0.4-6.1,3.6-5.7,7.2c0.1,1,0.5,2,1,2.8c-12.1,12.6-14,29.7-13.3,42.5
			c0.9,15.2,6.2,30.4,11.5,38.3c-1.1,1.8-1.3,4-0.4,5.9c-1.7,2.5-2.7,5.5-3,8.5c-0.6,5,0.2,10.1,2.4,14.7c-2,3-1.1,7.1,1.9,9
			c0.7,0.5,1.5,0.8,2.4,1c2.3,8,8.2,14.8,17.3,20.1c3.5,2,7.1,3.6,10.9,4.9l0,0c0,3.6,2.8,6.5,6.4,6.5c0.7,0,1.5-0.1,2.2-0.4
			c7,8.9,15.2,11.2,22.1,11.2c0.4,0,0.8,0,1.3,0c0.6,3.6,4,5.9,7.5,5.3c3.6-0.6,5.9-4,5.3-7.5c-0.1-0.3-0.1-0.6-0.2-0.9
			c8.4-3.7,15.2-10,15.2-13.6v-14.6c3.5-1,5.5-4.6,4.5-8c-0.6-2.2-2.3-3.9-4.5-4.5v-37.4c3.5-1,5.5-4.6,4.5-8
			c-0.6-2.2-2.3-3.9-4.5-4.5v-37.4c3.5-1,5.5-4.6,4.5-8c-0.6-2.2-2.3-3.9-4.5-4.5V58.7c3.5-1,5.5-4.6,4.5-8
			c-0.6-2.2-2.3-3.9-4.5-4.5V21.5l-0.9-0.5c-5.6-3.5-12-5.4-18.6-5.4C149.4,15.7,146.2,16,143.1,16.8"/>
	</defs>
	<clipPath id="SVGID_5_">
		<use xlink:href="#SVGID_4_"  style="overflow:visible;"/>
	</clipPath>
	<g class="st4">
		
			<linearGradient id="SVGID_6_" gradientUnits="userSpaceOnUse" x1="-680.9665" y1="15.8877" x2="-680.3465" y2="15.8877" gradientTransform="matrix(2.045773e-14 334.1 334.1 -2.045773e-14 -5185.4536 227504.0781)">
			<stop  offset="0" style="stop-color:#2E3192"/>
			<stop  offset="0.99" style="stop-color:#EF4136"/>
			<stop  offset="1" style="stop-color:#EF4136"/>
		</linearGradient>
		<rect x="68.5" y="15.6" class="st5" width="108.2" height="229.7"/>
	</g>
</g>
</svg>
